<?xml version="1.0" encoding="UTF-8" standalone="no"?>
<svg
   xmlns:dc="http://purl.org/dc/elements/1.1/"
   xmlns:cc="http://creativecommons.org/ns#"
   xmlns:rdf="http://www.w3.org/1999/02/22-rdf-syntax-ns#"
   xmlns:svg="http://www.w3.org/2000/svg"
   xmlns="http://www.w3.org/2000/svg"
   viewBox="0 0 1133.8586 1133.8586"
   height="1133.8586"
   width="1133.8586"
   xml:space="preserve"
   id="svg2"
   version="1.1"><metadata
     id="metadata8"><rdf:RDF><cc:Work
         rdf:about=""><dc:format>image/svg+xml</dc:format><dc:type
           rdf:resource="http://purl.org/dc/dcmitype/StillImage" /></cc:Work></rdf:RDF></metadata><defs
     id="defs6"><clipPath
       id="clipPath18"
       clipPathUnits="userSpaceOnUse"><path
         id="path16"
         d="M 0,850.394 H 850.394 V 0 H 0 Z" /></clipPath></defs><g
     transform="matrix(1.3333333,0,0,-1.3333333,0,1133.8587)"
     id="g10"><g
       id="g12"><g
         clip-path="url(#clipPath18)"
         id="g14"><g
           transform="translate(838.612,423.6932)"
           id="g20"><path
             id="path22"
             style="fill:#70c839;fill-opacity:1;fill-rule:nonzero;stroke:none"
             d="m 0,0 c 0,-230.468 -186.831,-417.299 -417.3,-417.299 -230.468,0 -417.299,186.831 -417.299,417.299 0,230.468 186.831,417.3 417.299,417.3 C -186.831,417.3 0,230.468 0,0" /></g><g
           transform="translate(802.9072,425.9248)"
           id="g24"><path
             id="path26"
             style="fill:#42392a;fill-opacity:1;fill-rule:nonzero;stroke:none"
             d="m 0,0 c 0,-209.517 -169.847,-379.363 -379.363,-379.363 -209.517,0 -379.363,169.846 -379.363,379.363 0,209.517 169.846,379.363 379.363,379.363 C -169.847,379.363 0,209.517 0,0" /></g><g
           transform="translate(698.9837,424.6538)"
           id="g28"><path
             id="path30"
             style="fill:#70c839;fill-opacity:1;fill-rule:nonzero;stroke:none"
             d="m 0,0 c 0,-148.962 -120.228,-269.72 -268.537,-269.72 -148.309,0 -268.537,120.758 -268.537,269.72 0,148.962 120.228,269.72 268.537,269.72 C -120.228,269.72 0,148.962 0,0" /></g><g
           transform="translate(696.8102,423.7332)"
           id="g32"><path
             id="path34"
             style="fill:#231f20;fill-opacity:1;fill-rule:nonzero;stroke:none"
             d="m 0,0 c 0.635,144.526 -115.142,263.804 -260.146,267.503 -150.54,3.841 -273.442,-116.537 -274.308,-265.564 -0.86,-147.848 117.783,-267.598 266.297,-268.811 C -120.981,-268.074 -0.811,-148.48 0,0 m -537.751,0.816 c 0.15,148.956 121.348,269.924 270.53,270.017 C -117.83,270.926 3.846,149.134 3.445,-0.09 c -0.402,-149.561 -121.78,-270.224 -271.566,-269.967 -148.876,0.256 -269.78,121.717 -269.63,270.873" /></g><g
           transform="translate(662.4557,471.7949)"
           id="g36"><path
             id="path38"
             style="fill:#231f20;fill-opacity:1;fill-rule:nonzero;stroke:none"
             d="m 0,0 c -0.243,-0.877 -0.485,-1.753 -0.728,-2.63 2.4,-0.485 4.801,-0.969 7.201,-1.454 0.172,0.654 0.345,1.307 0.517,1.961 C 4.66,-1.416 2.33,-0.708 0,0 m -125.788,113.429 c 1.877,3.112 3.327,5.517 5.208,8.636 -5.24,-1.034 -6.633,-3.473 -5.208,-8.636 M -354.771,-215.68 c 0.57,-0.475 1.139,-0.949 1.709,-1.424 1.972,2.513 3.943,5.026 5.915,7.538 -0.452,0.363 -0.905,0.725 -1.357,1.088 -2.089,-2.401 -4.178,-4.802 -6.267,-7.202 m -97.732,235.943 c 2.397,4.603 -0.504,4.847 -3.656,5.372 -0.336,-1.363 -0.643,-2.611 -0.982,-3.989 1.789,-0.534 3.129,-0.933 4.638,-1.383 m 296.411,-264.742 c -0.354,3.101 0.071,5.58 -0.973,6.876 -1.177,1.462 -3.676,1.86 -5.994,2.897 2.35,-3.297 4.131,-5.795 6.967,-9.773 m -65.201,-10.577 -1.151,2.811 c -2.037,-0.962 -4.098,-1.879 -6.052,-2.987 -0.129,-0.073 0.564,-1.597 0.874,-2.447 2.11,0.875 4.219,1.749 6.329,2.623 m 175.534,232.18 c -3.498,-1.32 -6.771,-2.556 -10.558,-3.985 h 11.285 c -0.231,1.263 -0.499,2.736 -0.727,3.985 M -378.921,95.035 c 0,2.526 0.059,4.285 -0.076,6.03 -0.016,0.212 -1.384,0.667 -1.594,0.463 -1.332,-1.297 -2.515,-2.747 -4.211,-4.673 2.296,-0.71 3.463,-1.071 5.881,-1.82 M -32.759,-91.314 c 2.265,6.234 1.09,9.61 -2.678,10.723 0.904,-3.62 1.791,-7.171 2.678,-10.723 m -220.605,252.7 c 0.877,-3.3 1.628,-6.125 2.379,-8.951 3.63,5.279 3.087,6.773 -2.379,8.951 M -380.29,-245.703 c 0.392,-0.889 0.784,-1.777 1.176,-2.666 1.908,0.53 3.817,1.059 5.725,1.589 -0.764,1.437 -1.529,2.873 -2.294,4.31 -1.536,-1.078 -3.071,-2.155 -4.607,-3.233 m 262.339,335.429 c -0.127,-0.453 -0.254,-0.906 -0.381,-1.359 2.072,-1.842 4.144,-3.683 6.215,-5.525 0.467,0.222 0.934,0.444 1.401,0.666 -0.42,1.81 -0.268,4.357 -1.406,5.242 -1.37,1.064 -3.837,0.714 -5.829,0.976 m -142.363,49.152 c 0.53,0.913 1.061,1.826 1.591,2.739 -1.496,0.532 -3.062,1.619 -4.467,1.439 -1.373,-0.176 -3.063,-1.41 -3.661,-2.642 -0.308,-0.635 1.329,-3.103 2.317,-3.256 1.287,-0.199 2.803,1.078 4.22,1.72 m -19.047,18.556 c -3.931,-2.726 -3.264,-5.633 -1.996,-8.471 0.349,-0.78 1.549,-1.181 2.358,-1.756 0.398,0.87 1.207,1.785 1.118,2.603 -0.251,2.336 -0.868,4.633 -1.48,7.624 m -52.485,-424.215 c -2.393,1.415 -3.718,2.758 -5.124,2.849 -1.092,0.071 -2.286,-1.422 -3.434,-2.22 1.226,-1.375 2.236,-3.275 3.769,-3.908 0.779,-0.321 2.5,1.638 4.789,3.279 m 168.787,384.308 c 0.062,-0.545 0.124,-1.091 0.185,-1.637 2.254,-1.067 4.508,-2.134 6.762,-3.201 0.427,0.192 0.855,0.383 1.282,0.575 -0.531,1.871 -0.744,5.122 -1.658,5.332 -2.002,0.461 -4.359,-0.618 -6.571,-1.069 M -399.798,13.616 c -0.444,0.462 -0.887,0.925 -1.331,1.387 -1.613,-1.588 -3.98,-2.928 -4.61,-4.84 -0.529,-1.61 0.961,-3.884 1.557,-5.865 0.461,0.11 0.922,0.219 1.383,0.328 1,2.997 2.001,5.994 3.001,8.99 m 96.17,101.828 c 0.121,0.551 0.242,1.103 0.364,1.655 -2.239,0.63 -4.83,2.225 -6.602,1.578 -1.355,-0.495 -1.675,-3.826 -2.455,-5.895 0.357,-0.255 0.713,-0.511 1.07,-0.766 2.541,1.143 5.082,2.285 7.623,3.428 m 15.7,5.946 c 3.743,1.141 7.194,2.194 11.091,3.383 -5.538,4.313 -9.285,3.089 -11.091,-3.383 M -463.367,-68.202 c 1.912,5.942 0.672,8.434 -4.594,9.991 -0.788,-4.25 -0.255,-7.832 4.594,-9.991 m 39.446,15.261 c -0.782,-0.048 -1.564,-0.096 -2.346,-0.143 0.429,-4.919 0.857,-9.837 1.286,-14.755 0.763,0.065 1.527,0.131 2.29,0.196 -0.41,4.901 -0.82,9.801 -1.23,14.702 m 167.954,203.842 c 0.402,0.468 0.805,0.936 1.208,1.404 -0.177,0.929 -0.163,1.952 -0.566,2.769 -1.192,2.413 0.898,6.597 -3.791,7.133 -0.02,-2.797 -0.346,-5.642 0.086,-8.367 0.176,-1.113 1.992,-1.967 3.063,-2.939 m -82.85,-387.978 c 0.288,0.629 1.517,2.024 1.289,3.115 -0.333,1.597 -1.405,3.688 -2.725,4.255 -1.445,0.62 -3.531,-0.254 -5.337,-0.478 0.268,-0.926 0.252,-2.172 0.862,-2.716 1.519,-1.356 3.323,-2.392 5.911,-4.176 M 11.126,-29.278 c 0.637,7.938 -0.182,9.308 -4.771,7.987 0.491,-8.856 0.491,-8.856 4.771,-7.987 m -496.844,-16.08 c 0.551,-0.323 1.102,-0.645 1.653,-0.967 1.539,1.869 3.638,3.552 4.35,5.696 0.298,0.898 -2.346,2.772 -3.652,4.203 -0.494,-0.249 -0.989,-0.498 -1.484,-0.747 -0.289,-2.728 -0.578,-5.457 -0.867,-8.185 m 377.934,126.393 -0.122,-1.468 c 2.165,-2.419 4.329,-4.837 6.494,-7.255 0.616,0.298 1.232,0.595 1.847,0.893 -0.771,2.291 -1.014,5.052 -2.494,6.71 -1.03,1.156 -3.756,0.801 -5.725,1.12 m -22.346,16.419 c 1.857,3.792 1.738,6.487 -1.637,7.978 -2.683,1.185 -4.887,0.359 -6.147,-2.747 2.606,-1.751 4.968,-3.339 7.784,-5.231 M -423.109,-81.045 c 0.728,-0.118 1.455,-0.236 2.183,-0.354 2.776,7.057 2.28,14.481 1.906,21.584 -1.331,-6.912 -2.71,-14.071 -4.089,-21.23 M -57.972,51.357 c 4.26,1.675 5.184,3.632 4.627,8.258 -0.574,4.779 -2.949,7.796 -7.515,8.375 4.673,-4.973 6.841,-10.041 2.888,-16.633 m -378.267,-79.988 c -2.862,1.932 -4.532,3.925 -5.828,3.706 -1.459,-0.247 -3.286,-2.354 -3.584,-3.913 -0.18,-0.943 2.191,-3.288 3.504,-3.358 1.462,-0.078 3.024,1.711 5.908,3.565 m 189.567,159.925 c 0.358,-0.34 0.717,-0.68 1.076,-1.021 h 10.161 c -1.525,3.83 -3.519,6.522 -7.232,5.608 -1.613,-0.397 -2.687,-2.99 -4.005,-4.587 M -40.64,-97.473 c -5.427,-5.888 -6.394,-10.733 -2.883,-15.591 -0.753,5.957 0.712,10.157 7.283,11.279 -1.656,1.623 -2.902,2.845 -4.4,4.312 M -446.323,14.696 c -0.348,-0.571 -0.696,-1.142 -1.044,-1.712 3.264,-2.595 6.529,-5.189 9.794,-7.784 0.566,0.34 1.132,0.68 1.698,1.02 -0.279,1.562 -0.046,4.017 -0.93,4.523 -2.958,1.693 -6.314,2.689 -9.518,3.953 m 385.126,34.4 c -6.911,-1.788 -11.899,0.005 -15.362,7.312 -0.687,-6.227 1.765,-8.884 5.717,-10.088 3.231,-0.984 6.873,-2.041 9.645,2.776 M 9.605,-16.681 c 0.035,9.079 -0.659,9.945 -7.265,8.782 3.005,-2.565 -0.162,-9.253 7.265,-8.782 m -98.878,122.38 c -0.382,0.383 -0.763,0.765 -1.145,1.148 -2.759,-3.572 -5.518,-7.145 -8.17,-10.578 8.115,0.45 8.512,0.843 9.315,9.43 M -29.269,0.559 c -3.896,-2.446 -7.063,-4.435 -10.906,-6.847 7.575,-3.433 10.891,-1.407 10.906,6.847 M -205.717,128.05 c 5.203,-0.968 9.637,-1.793 14.372,-2.673 -2.579,6.683 -7.916,7.734 -14.372,2.673 m -62.552,33.024 c 0.774,-3.723 1.547,-7.447 2.317,-11.15 4.131,0.604 4.131,0.604 3.454,4.429 -1.348,7.61 -1.348,7.61 -5.771,6.721 M -449.255,-29.445 c -2.782,1.919 -4.306,3.777 -5.821,3.77 -1.316,-0.006 -3.83,-2.337 -3.666,-3.257 0.283,-1.586 2.072,-3.756 3.535,-4.027 1.333,-0.246 3.073,1.703 5.952,3.514 m 356.529,91.323 c 2.742,2.127 5,4.499 2.651,7.398 -2.174,2.685 -5.362,2.189 -8.587,-0.19 2.032,-2.467 3.926,-4.766 5.936,-7.208 m -257.626,-310.841 c -4.445,-0.302 -12.437,-11.063 -11.474,-15.485 3.824,5.162 7.649,10.323 11.474,15.485 m 198.478,359.595 c 3.518,-1.923 6.766,-3.699 10.173,-5.56 1.666,3.754 0.518,6.165 -2.339,7.675 -2.757,1.457 -5.429,1.286 -7.834,-2.115 m 68.433,-2.438 c -0.499,-0.287 -0.997,-0.574 -1.496,-0.861 -0.677,-2.809 -1.353,-5.617 -2.179,-9.045 3.695,1.035 8.157,-0.175 7.99,4.786 -0.06,1.753 -2.799,3.416 -4.315,5.12 m -188.122,52.28 c -5.051,-1.019 -5.125,-1.62 -3.241,-9.161 0.883,-3.535 2.7,-3.353 5.532,-1.807 -0.74,3.544 -1.483,7.1 -2.291,10.968 m 151.476,-25.405 c -5.891,-1.743 -7.082,-4.291 -4.967,-10.633 7.018,2.9 7.691,4.341 4.967,10.633 M -17.731,-48.88 c -0.883,11.772 -11.633,17.826 -21.86,12.474 10.219,0.747 17.416,-2.744 21.86,-12.474 M -336.042,97.251 c 0.006,0.577 0.012,1.155 0.017,1.732 -2.82,0.566 -5.641,1.132 -8.462,1.697 -0.323,-3.031 -0.646,-6.062 -0.969,-9.093 0.557,-0.123 1.113,-0.247 1.67,-0.371 2.581,2.012 5.163,4.023 7.744,6.035 M -461.876,23.988 c -4.732,3.154 -11.45,3.076 -13.651,-0.764 -2.607,-4.547 -0.936,-10.464 2.532,-12.443 -0.402,2.636 -2.444,8.259 -1.169,9.155 3.5,2.456 8.393,2.926 12.288,4.052 M -24.142,-0.438 c -1.882,-3.138 -3.147,-7.573 -6.058,-9.438 -2.855,-1.829 -7.386,-1.043 -11.049,-1.392 1.751,-3.165 6.302,-4.031 11.366,-1.873 5.507,2.347 7.578,7.327 5.741,12.703 m -278.137,-263.769 c -3.838,9.663 -3.838,9.663 -0.464,26.893 -7.692,-8.338 -7.464,-21.532 0.464,-26.893 m -53.51,18.355 c -3.126,1.649 -8.752,-4.201 -13.469,-13.669 3.088,-1.636 5.588,0.876 13.469,13.669 m 166.639,375.175 c 1.791,-3.713 4.216,-6.341 8.005,-5.46 3.623,0.842 4.827,4.111 5.103,7.877 -4.504,-0.83 -8.56,-1.578 -13.108,-2.417 M -83.933,84.985 c -7.274,-0.767 -9.18,-3.419 -8.052,-10.756 6.772,1.445 8.164,3.242 8.052,10.756 m 49.568,-41.407 c 3.322,6.502 2.341,10.182 -4.291,13.585 1.117,-3.429 1.924,-5.906 2.706,-8.309 -2.727,0.401 -4.904,0.721 -7.081,1.042 -0.188,-0.718 -0.377,-1.437 -0.565,-2.155 3.082,-1.39 6.163,-2.779 9.231,-4.163 m -214.922,88.256 c -0.33,0.278 -0.66,0.556 -0.99,0.833 l -24.104,-4.491 c 0.945,-1.355 2.243,-2.266 3.4,-2.112 6.4,0.853 12.786,1.866 19.125,3.091 0.992,0.191 1.719,1.752 2.569,2.679 M -71.652,42.309 c 0.286,-7.844 3.224,-10.312 9.33,-8.066 -0.394,2.609 -0.794,5.252 -1.219,8.066 z m -222.413,-284.308 c -1.003,-4.715 -1.889,-8.881 -2.797,-13.151 4.802,-1.187 6.873,0.782 7.769,4.03 1.058,3.835 -0.305,6.782 -4.972,9.121 m -49.937,-10.317 c -0.181,0.465 -0.362,0.931 -0.543,1.396 -1.333,-0.346 -3.212,-0.25 -3.908,-1.111 -3.535,-4.374 -6.764,-8.996 -10.1,-13.531 0.199,-0.471 0.398,-0.941 0.598,-1.412 1.314,0.362 3.156,0.297 3.853,1.158 3.53,4.368 6.763,8.976 10.1,13.5 m 192.104,370.46 c 0.205,-0.366 0.411,-0.731 0.616,-1.097 3.095,-0.443 6.196,-1.222 9.281,-1.165 1.244,0.023 3.107,1.663 3.524,2.946 0.605,1.862 0.155,4.067 0.155,6.908 -4.855,-2.715 -9.215,-5.153 -13.576,-7.592 M -404.483,-0.923 c -4.465,1.086 -7.461,0.427 -8.714,-3.623 -1.039,-3.36 1.451,-6.851 5.889,-8.513 0.905,3.886 1.803,7.746 2.825,12.136 m 354.067,53.364 c 4.059,-0.611 7.835,-0.867 8.794,3.369 0.542,2.395 -0.594,5.347 -1.606,7.786 -0.238,0.573 -3.032,0.085 -4.65,0.085 -0.038,-0.409 -0.077,-0.818 -0.115,-1.227 1.24,-0.636 2.481,-1.271 3.721,-1.906 -0.32,-0.499 -0.641,-0.998 -0.961,-1.496 -1.554,-0.23 -3.108,-0.46 -4.744,-0.702 -0.148,-1.997 -0.278,-3.736 -0.439,-5.909 m -292.791,-257.519 c -1.587,-4.08 -2.183,-8.217 -4.497,-10.833 -2.324,-2.627 -6.361,-3.739 -10.115,-5.767 4.567,-1.84 8.239,-0.789 11.419,1.954 3.743,3.229 5.741,7.417 5.142,12.448 -0.108,0.907 -1.453,1.667 -1.949,2.198 m 63.81,-14.452 c 0.617,-6.909 6.302,-10.684 10.697,-7.963 1.078,0.668 1.816,2.135 2.293,3.393 0.176,0.463 -0.732,1.856 -1.354,2.017 -3.665,0.945 -7.391,1.651 -11.636,2.553 m 71.188,-4.205 c -2.936,-0.332 -5.63,-0.638 -8.325,-0.94 -3.815,-0.427 -3.13,-2.571 -1.548,-4.614 2.859,-3.692 10.208,-2.515 12.213,1.834 1.251,2.714 0.427,3.962 -2.34,3.72 m -115.889,23.515 c -2.869,1.741 -5.784,3.51 -8.67,5.261 -3.357,-4.894 -3.201,-8.639 0.09,-10.427 3.015,-1.636 6.305,0.217 8.58,5.166 m 3.657,-2.261 c -0.087,-3.788 -0.567,-6.646 -0.012,-9.287 0.223,-1.063 3.112,-2.648 4.095,-2.257 2.492,0.993 4.593,2.969 7.883,5.274 -4.592,2.406 -7.521,3.941 -11.966,6.27 m 298.81,153.698 c -3.782,7.458 -9.517,10.311 -15.92,8.202 3.273,-6.546 8.319,-9.231 15.92,-8.202 m -269.903,230.119 c 0.013,-0.761 0.027,-1.522 0.04,-2.283 2.147,-1.345 4.408,-3.88 6.406,-3.687 1.827,0.177 4.467,3.132 4.785,5.169 0.499,3.201 -2.149,5.626 -5.455,4.926 -2.122,-0.449 -3.864,-2.688 -5.776,-4.125 m -175.148,-324.392 c 6.86,6.042 4.524,12.967 -5.939,19.028 2.103,-6.737 3.91,-12.528 5.939,-19.028 m 428.342,59.81 c -2.043,-4.861 -1.746,-9.29 1.234,-13.228 2.521,-3.332 6.077,-3.586 8.661,-0.803 2.799,3.016 3.035,8.877 0.149,13.275 0.124,-1.488 0.15,-2.43 0.29,-3.355 0.478,-3.14 1.04,-6.533 -3.309,-7.157 -4.512,-0.647 -5.039,2.903 -5.668,6.18 -0.329,1.72 -0.897,3.394 -1.357,5.088 m 37.604,61.893 c 0.03,5.885 -3.421,10.342 -7.982,10.311 -4.519,-0.03 -8.086,-4.615 -8.061,-10.359 0.023,-5.579 3.375,-9.848 7.828,-9.969 4.709,-0.128 8.185,4.111 8.215,10.017 m -431.251,41.066 c -4.688,1.126 -8.871,2.274 -13.123,3.045 -0.989,0.179 -2.21,-0.924 -3.325,-1.437 0.707,-1.067 1.176,-2.664 2.163,-3.106 3.936,-1.761 8.034,-3.162 12.35,-4.803 0.692,2.252 1.242,4.043 1.935,6.301 m 185.699,167.439 c -3.355,2.571 -5.118,4.925 -7.243,5.315 -3.214,0.592 -5.531,-1.664 -5.604,-5.091 -0.073,-3.461 2.271,-5.721 5.436,-5.294 2.122,0.285 3.969,2.606 7.411,5.07 M 10.7,-87.201 c 2.704,4.804 3.576,11.434 0.81,13.012 -2.697,1.539 -6.299,1.495 -10.633,2.375 C 4.846,-78.03 7.82,-82.689 10.7,-87.201 M -446.129,26.5 c 3.457,-0.836 6.408,-1.592 9.379,-2.26 6.942,-1.559 7.091,-1.435 7.774,5.711 -8.191,2.643 -13.611,1.714 -17.153,-3.451 m 380.352,103.269 c -4.964,2.669 -9.452,1.23 -12.005,-4.254 -2.016,-4.329 -1.42,-5.348 3.977,-7.381 2.728,3.954 5.394,7.818 8.028,11.635 m -331.88,-244.293 c -1.257,3.37 -2.582,6.923 -3.804,10.202 -3.407,-2.536 -6.648,-4.948 -10.391,-7.733 0.471,-1.199 1.197,-3.043 1.619,-4.118 4.468,0.585 8.299,1.088 12.576,1.649 m 201.132,-166.351 c -1.755,-7.797 -5.2,-11.402 -11.558,-11.671 -2.621,-0.111 -5.863,0.261 -7.809,1.743 -2.853,2.173 -4.795,5.541 -7.235,8.534 -2.465,-1.262 -2.881,-3.013 -0.846,-5.857 5.357,-7.489 24.071,-7.429 29.302,0.182 1.786,2.599 2.35,5.258 -1.854,7.069 m -101.15,58.792 c 2.742,-2.202 4.417,-4.53 6.51,-5.002 3.275,-0.737 6.74,3.212 6.537,6.821 -0.263,4.673 -4.699,4.079 -7.31,4.496 -1.298,0.208 -3.205,-3.397 -5.737,-6.315 m 65.219,-3.379 c -0.239,0.38 -0.479,0.761 -0.718,1.141 -1.908,-1.33 -4.853,-2.289 -5.489,-4.073 -1.056,-2.958 3.446,-6.897 7.215,-6.689 3.02,0.166 6.035,1.07 5.865,4.926 -0.188,4.276 -3.201,5.107 -6.873,4.695 m 80.574,349.348 c 0.361,-0.311 0.723,-0.622 1.084,-0.933 12.652,5.105 15.034,8.246 12.421,18.693 -4.955,-6.516 -9.23,-12.138 -13.505,-17.76 m -221.044,-382.055 c 4.15,5.621 7.763,10.515 12.035,16.301 -4.136,0.808 -7.5,1.465 -11.567,2.259 4.053,-8.492 3.129,-10.393 -6.957,-13.269 2.391,-1.95 4.071,-3.319 6.489,-5.291 m 270.174,71.493 c -3.801,3.261 -6.012,6.143 -8.88,7.144 -1.182,0.413 -3.775,-3.217 -5.726,-5.009 2.53,-2.359 4.814,-5.157 7.744,-6.805 0.85,-0.478 3.552,2.338 6.862,4.67 m -290.665,215.52 c -0.182,0.674 -0.363,1.348 -0.544,2.022 -3.262,-0.376 -6.728,-0.225 -9.691,-1.374 -1.266,-0.491 -2.576,-4.239 -1.927,-5.54 1.093,-2.191 3.624,-3.784 5.842,-5.159 0.316,-0.196 2.541,2.07 3.387,3.492 1.216,2.044 1.977,4.359 2.933,6.559 m 267.14,-221.437 c -0.053,-5.366 3.584,-9.316 7.207,-9.441 3.432,-0.118 4.965,1.961 5.166,5.049 0.194,2.963 -4.62,7.92 -7.575,7.349 -2.012,-0.389 -3.737,-2.264 -4.798,-2.957 m -67.176,-38.846 c 4.662,0.017 8.139,2.731 7.963,5.986 -0.18,3.344 -2.304,4.731 -5.475,4.734 -4.906,0.005 -8.33,-2.248 -8.202,-5.59 0.152,-3.937 2.963,-4.909 5.714,-5.13 m -146.276,39.541 c -1.089,0.848 -2.762,3.071 -4.847,3.565 -3.376,0.802 -7.31,-3.439 -7.418,-7.241 -0.085,-3.028 1.272,-4.889 4.448,-5.076 3.855,-0.227 7.464,3.08 7.817,8.752 m 168.61,-35.459 c 3.248,3.388 6.629,5.393 7.432,8.149 0.936,3.217 -2.399,4.888 -5.608,4.946 -4.173,0.075 -8.805,-3.321 -7.854,-6.04 0.796,-2.274 3.274,-3.96 6.03,-7.055 m -54.34,-34.436 c 6.11,-1.405 10.509,1.163 11.497,6.182 0.96,4.875 -2.316,9.647 -7.121,10.373 -4.53,0.684 -6.811,-0.798 -7.085,-3.287 3.47,-1.374 8.31,-1.805 9.309,-3.991 2.168,-4.745 -3.23,-6.427 -6.6,-9.277 m -28.841,26.562 c 0.894,1.022 3.331,2.618 3.883,4.711 0.886,3.358 -3.246,6.508 -7.707,6.738 -3.413,0.175 -5.142,-1.523 -5.388,-4.707 -0.246,-3.196 3.69,-6.563 9.212,-6.742 m 114.422,23.234 c 4.318,0.068 7.806,2.729 7.429,5.981 -0.447,3.86 -3.335,4.918 -6.693,4.786 -3.746,-0.147 -6.941,-1.747 -7.085,-5.826 -0.137,-3.901 2.912,-4.974 6.349,-4.941 m 46.602,32.006 c -0.143,5.497 -3.92,9.394 -7.545,9.222 -2.987,-0.142 -4.829,-1.74 -4.897,-4.876 -0.082,-3.729 4.349,-8.454 7.783,-7.677 2.011,0.455 3.647,2.565 4.659,3.331 m -70.454,-31.626 c 1.605,-2.696 2.959,-4.969 4.428,-7.436 4.027,1.79 8.089,3.595 11.898,5.288 -1.068,3.009 -1.996,5.626 -2.994,8.439 -4.479,-2.113 -8.827,-4.165 -13.332,-6.291 m -36.784,-69.634 h -17.381 c 0.052,-5.153 2.708,-7.807 7.721,-8.176 5.444,-0.4 9.009,2.399 9.66,8.176 M -315.54,115.694 c -7.451,-4.153 -14.684,-8.185 -21.917,-12.217 2.873,-3.899 5.829,-3.976 9.455,-1.168 2.659,2.059 5.655,3.777 8.705,5.212 3.544,1.668 5.474,3.806 3.757,8.173 m 288.475,-237.151 c -2.388,5.089 -4.095,9.386 -6.426,13.313 -0.754,1.269 -3.15,1.565 -4.794,2.306 -0.735,-1.81 -2.174,-3.657 -2.08,-5.423 0.342,-6.442 3.917,-9.317 13.3,-10.196 m -179.147,253.904 c -4.848,3.961 -9.499,7.76 -14.142,11.553 -3.07,-3.552 -3.308,-7.68 -0.491,-11.092 3.199,-3.876 8.887,-3.993 14.633,-0.461 m -134.062,-385.24 c -3.898,-5.239 -7.069,-9.472 -10.196,-13.736 -0.546,-0.744 -0.905,-1.625 -1.751,-3.18 3.933,-1.275 7.505,-2.434 10.341,-3.354 -0.428,3.732 -2.03,7.535 -0.781,9.676 1.248,2.141 5.348,2.619 9.218,4.257 -1.938,1.798 -4.102,3.805 -6.831,6.337 m -70.175,50.773 c -2.705,3.025 -4.869,5.446 -7.345,8.214 -2.383,-6.432 -6.638,-9.818 -13.889,-10.089 2.915,-3.491 5.295,-6.342 8.254,-9.888 1.129,7.827 5.263,11.362 12.98,11.763 m 138.811,386.342 c 4.35,0.086 8.098,2.818 8.171,5.957 0.072,3.051 -3.231,5.44 -7.336,5.306 -4.433,-0.144 -8.092,-2.836 -8.155,-5.998 -0.063,-3.146 3.003,-5.351 7.32,-5.265 m -118.608,-98.31 c 4.985,-2.959 8.905,-5.286 14.147,-8.398 0.384,3.579 1.95,7.312 0.71,9.232 -1.76,2.725 -5.497,5.402 -8.562,5.615 -1.964,0.136 -4.239,-4.202 -6.295,-6.449 m 367.135,-1.828 c -3.786,-7.859 -11.099,-6.177 -17.321,-7.587 -5.326,-1.206 -10.576,-2.741 -16.587,-4.322 2.63,-3.18 4.243,-5.13 6.629,-8.016 1.008,10.642 8.417,9.467 15.139,9.821 3.019,0.159 6.145,0.544 8.972,1.539 4.066,1.431 5.062,4.04 3.168,8.565 M -457.18,-149.833 c 4.18,-1.65 11.904,0.696 14.939,5.25 1.927,2.892 2.805,6.037 -0.562,8.547 -2.783,2.075 -5.858,0.446 -7.997,-3.5 -1.939,-3.579 -4.279,-6.94 -6.38,-10.297 M 1.685,-42.712 c 7.205,-4.455 13.837,-1.156 13.738,6.41 -0.128,9.801 -1.168,19.651 -2.685,29.343 C 12.127,-3.051 9.789,0.973 7.208,4.093 3.695,8.339 -1.729,6.869 -3.196,1.847 4.408,4.322 9.669,2.173 11.243,-5.276 c 1.796,-8.503 2.776,-17.227 3.413,-25.907 0.42,-5.721 -3.223,-9.025 -9.027,-9.864 -1.077,-0.156 -2.076,-0.855 -3.944,-1.665 m -417.753,-95.622 c -4.096,3.703 -7.245,6.919 -10.815,9.568 -1.167,0.865 -3.43,0.253 -5.191,0.316 0.105,-1.529 -0.354,-3.477 0.416,-4.511 2.912,-3.907 4.185,-7.797 1.992,-13.042 4.467,2.52 8.934,5.039 13.598,7.669 M -39.07,-177.79 c 3.491,-4.409 7.162,-4.882 8.129,-0.732 0.91,3.908 2.917,6.104 6.089,7.899 0.788,0.445 1.433,1.337 1.872,2.168 1.575,2.978 0.025,4.851 -2.42,6.362 -2.483,1.535 -3.627,0.228 -4.88,-1.881 -2.778,-4.679 -5.827,-9.196 -8.79,-13.816 m 22.535,53.723 c 0.188,2.416 1.473,5.675 0.376,7.507 -2.473,4.129 -5.633,8.23 -9.474,11.019 -2.49,1.807 -3.857,-1.011 -2.937,-3.77 0.969,-2.905 2.682,-5.68 3.056,-8.639 0.627,-4.961 3.221,-6.619 8.979,-6.117 M -454.94,28.285 c 2.373,0.118 4.851,-0.446 5.467,0.38 5.004,6.711 11.725,6.63 18.831,5.276 3.418,-0.651 4.757,0.724 4.628,3.972 -11.969,5.639 -23.507,2.173 -28.926,-9.628 m 50.671,-126.371 c 0.1,4.183 -2.195,7.179 -5.513,7.197 -3.691,0.021 -7.629,-4.645 -7.756,-9.189 -0.099,-3.56 2.802,-7.258 5.702,-7.27 3.719,-0.016 7.455,4.557 7.567,9.262 m 0.899,-19.899 c -2.756,-0.246 -4.889,-1.756 -4.907,-5.38 -0.023,-4.696 4.663,-9.192 9.516,-9.121 3.482,0.05 5.449,1.786 5.511,5.332 0.08,4.532 -4.883,9.259 -10.12,9.169 m -66.096,5.452 c 3.886,-3.709 7.255,-7.408 11.16,-10.412 1.544,-1.188 4.279,-0.829 6.471,-1.174 0.02,2.074 0.78,4.565 -0.102,6.131 -1.611,2.861 -3.921,5.491 -6.427,7.653 -5.284,4.56 -7.468,3.982 -11.102,-2.198 m 339.257,221.36 c 0.612,10.337 1.264,19.983 1.644,29.64 0.042,1.073 -1.469,2.206 -2.26,3.312 -1.047,-0.854 -2.938,-1.642 -3.011,-2.573 -0.767,-9.771 -1.242,-19.564 -1.818,-29.704 1.856,-0.23 3.377,-0.419 5.445,-0.675 M -447.138,-71.58 c -3.031,0 -6.359,-0.21 -9.65,0.053 -4.055,0.324 -6.052,-1.339 -5.048,-4.652 2.51,-8.28 14.286,-11.265 19.723,-5.855 -1.86,3.868 -3.583,7.454 -5.025,10.454 M 5.677,-109.567 c -8.189,-3.544 -14.911,-7.446 -20.101,-15.659 4.915,-0.237 8.686,-0.581 12.455,-0.566 7.317,0.028 7.834,0.68 7.655,8.11 -0.057,2.403 -0.009,4.808 -0.009,8.115 m -284.742,-186.55 c 2.159,-0.436 3.397,-0.744 4.652,-0.93 4.629,-0.682 9.523,1.874 11.207,5.811 1.586,3.708 0.081,7.746 -4.438,10.621 -7.163,4.556 -14.86,5.175 -22.695,1.985 -4.587,-1.867 -6.817,-5.7 -5.798,-9.447 1.277,-4.699 4.728,-6.272 9.92,-6.275 -3.779,3.005 -6.904,5.937 -4.825,10.546 2.07,4.591 6.518,5.412 11.009,5.578 1.415,0.053 2.883,-0.328 4.269,-0.716 5.185,-1.451 8.568,-4.97 8.502,-8.713 -0.069,-3.895 -3.373,-6.781 -9.058,-7.911 -0.612,-0.122 -1.223,-0.245 -2.745,-0.549 m -205.482,229.553 c 0.827,-6.08 -1.22,-13.366 5.375,-17.117 5.446,-3.098 11.161,-1.161 17.626,1.782 -2.334,2.269 -4.125,5.5 -5.937,5.512 -7.694,0.05 -12.791,3.678 -17.064,9.823 M -56.041,97.945 c 7.787,-0.099 12.535,3.699 12.377,8.868 -0.099,3.228 -0.107,7.316 -4.6,7.72 -4.967,0.446 -11.53,-6.889 -11.116,-12.638 0.124,-1.717 2.714,-3.256 3.339,-3.95 m -312.08,-290.455 c -2.313,4.998 -4.361,9.692 -6.642,14.27 -1.914,3.84 -4.054,4.034 -6.966,0.896 -3.848,-4.147 -2.58,-11.254 3.074,-17.231 2.682,-2.836 5.537,-2.259 10.534,2.065 m -89.621,210.379 c -2.762,-11.411 4.085,-19.534 18.063,-21.462 0.533,1.896 1.077,3.827 1.621,5.758 -0.441,-0.208 -0.881,-0.416 -1.322,-0.624 -3.627,3.747 -7.854,7.099 -10.679,11.376 -1.994,3.017 -3.733,4.961 -7.683,4.952 m 412.545,-29.601 c -1.463,2.659 -2.325,6.022 -4.488,7.608 -1.869,1.37 -5.374,1.383 -7.874,0.797 -3.201,-0.751 -2.2,-3.669 -1.652,-6.069 0.61,-2.672 0.856,-5.442 1.651,-8.049 0.541,-1.771 1.975,-4.823 2.629,-4.726 2.331,0.345 5.041,1.291 6.58,2.958 1.597,1.729 2.002,4.559 3.154,7.481 m 3.981,-28.883 c -2.177,3.744 -3.552,7.174 -5.908,9.684 -1.081,1.151 -4.416,1.208 -6.112,0.425 -1.259,-0.582 -1.974,-3.279 -2.13,-5.102 -0.258,-3.027 0.124,-6.109 0.243,-9.167 0.186,-4.807 3.898,-7.063 7.713,-4.148 2.439,1.864 3.856,5.065 6.194,8.308 m -249.049,182.291 c 4.128,-9.994 11.224,-12.237 24.685,-8.285 -5.302,2.787 -5.907,6.867 -2.915,12.334 -7.648,-1.422 -14.532,-2.703 -21.77,-4.049 m -163.111,-242.782 c 2.545,-6.118 7.896,-11.66 12.444,-13.41 4.422,-1.702 6.409,-0.369 6.413,4.306 0.002,3.623 0,7.247 0,11.668 -5.771,-0.784 -12.055,-1.639 -18.857,-2.564 m 390.57,208.542 c 4.289,4.026 8.351,7.838 12.469,11.704 -5.632,7.518 -10.494,9.541 -15.001,5.805 -5.853,-4.851 -5.146,-8.997 2.532,-17.509 m -197.308,26.776 c 14.656,2.438 21.839,8.194 21.496,17.053 -7.425,-1.377 -14.778,-2.74 -23.003,-4.266 4.64,-3.919 5.78,-7.833 1.507,-12.787 m -142.589,-353.591 c 1.989,5.324 0.608,9.652 -3.733,12.382 -3.805,2.393 -8.468,2.146 -11.165,-0.807 -3.064,-3.355 -2.843,-7.076 -0.527,-10.702 2.751,-4.308 7.242,-5.579 11.95,-3.569 -1.89,1.625 -3.771,3.243 -5.653,4.86 0.306,0.485 0.612,0.969 0.917,1.454 2.646,-1.166 5.291,-2.332 8.211,-3.618 M -73.657,97.594 c -8.962,-1.815 -17.582,-3.765 -26.284,-5.237 -4.386,-0.742 -5.976,-3.607 -7.82,-7.815 2.306,0.114 4.028,-0.006 5.666,0.314 8.219,1.606 16.376,3.58 24.637,4.909 4.801,0.772 5.283,3.155 3.801,7.829 m 63.068,-70.423 c 0,3.828 0.663,7.813 -0.242,11.405 -0.568,2.258 -3.16,4.722 -5.434,5.654 -2.759,1.131 -4.689,-0.773 -5.076,-4.047 -0.101,-0.851 -1.659,-1.665 -2.689,-2.247 -3.933,-2.221 -4.416,-5.901 -1.047,-8.978 4.239,-3.873 9.087,-3.179 14.488,-1.787 m -427.667,-213.784 c 0,-2.795 -0.197,-4.405 0.036,-5.95 0.746,-4.942 4.937,-8.298 9.459,-7.743 4.531,0.555 8.184,5.314 7.785,10.143 -0.449,5.436 -4.589,9.374 -9.49,8.973 -3.053,-0.249 -4.965,-1.263 -3.545,-4.918 0.519,-1.336 0.373,-2.93 0.531,-4.406 -0.386,-0.077 -0.773,-0.153 -1.159,-0.229 -0.894,1.02 -1.788,2.041 -3.617,4.13 m 327.437,333.941 c 2.746,1.322 5.516,1.782 6.079,3.15 0.684,1.664 0.13,4.527 -0.977,6.111 -3.72,5.324 -9.196,8.059 -15.659,8.158 -1.808,0.027 -4.506,-1.057 -5.215,-2.442 -0.71,-1.385 -0.117,-4.687 1.077,-5.578 4.665,-3.482 9.794,-6.342 14.695,-9.399 m -263.84,-72.596 c 1.858,-2.04 4.08,-4.477 6.388,-7.01 3.625,3.802 6.964,7.082 10.044,10.59 4.141,4.717 3.012,11.235 -1.95,12.194 -3.564,0.688 -9.51,-2.481 -10.856,-5.898 -1.221,-3.098 -2.302,-6.251 -3.626,-9.876 m 105.488,-348.365 c 7.955,0.455 15.197,8.709 14.553,15.889 -0.283,3.151 -2.396,3.372 -4.419,1.774 -1.598,-1.263 -2.656,-3.216 -3.93,-4.88 -6.416,-8.381 -19.772,-10.431 -30.017,-4.6 -7.257,4.13 -8.731,11.866 -4.324,22.831 0.542,1.349 1.193,2.654 1.804,3.975 1.098,2.373 2.203,4.742 3.499,7.53 -6.923,-1.686 -12.24,-17.724 -9.498,-26.431 1.636,-5.194 5.438,-8.393 10.146,-10.496 12.392,-5.537 23.736,-5.149 32.973,6.943 -0.79,-6.613 -5.401,-9.316 -10.787,-12.535 m 100.989,43.106 c -4.444,-5.474 -4.167,-12.091 0.839,-20.486 4.208,-7.058 8.732,-9.906 16.006,-7.247 8.843,3.233 17.201,7.92 25.486,12.491 3.621,1.998 4.059,6.052 2.937,9.925 -0.254,0.88 -1.306,1.848 -2.189,2.112 -0.549,0.163 -1.691,-0.773 -2.172,-1.483 -0.711,-1.047 -1.321,-2.288 -1.541,-3.524 -1.994,-11.178 -13.017,-15.89 -21.906,-16.388 -8.397,-0.47 -13.287,2.721 -15.324,10.831 -1.125,4.48 -1.449,9.16 -2.136,13.769 m 26.09,-44.493 c 4.067,2.148 8.376,3.948 12.127,6.551 3.15,2.185 4.7,5.7 1.815,9.22 -2.487,3.034 -5.369,5.616 -9.837,2.579 -2.233,-1.518 -4.88,-2.664 -7.503,-3.316 -4.62,-1.147 -5.274,-4.093 -4.463,-8.042 0.823,-4.012 3.018,-6.362 7.861,-6.992 m 54.984,124.799 c 7.668,-2.929 15.248,0.082 19.034,7.496 3.905,7.647 2.591,16.245 -2.95,19.784 -5.212,-8.651 -10.427,-17.301 -15.625,-25.961 -0.235,-0.392 -0.31,-0.879 -0.459,-1.319 m 47.823,-8.707 c -0.102,0.598 -0.207,1.567 -0.438,2.506 -1.675,6.833 -12.855,16.02 -19.799,16.075 -1.06,0.008 -2.454,-0.829 -3.137,-1.708 -3.177,-4.086 -6.279,-8.244 -9.12,-12.566 -0.687,-1.045 -0.931,-3.339 -0.267,-4.159 4.53,-5.594 9.779,-10.444 16.937,-12.439 7.774,-2.166 15.691,3.908 15.824,12.291 m -5.993,226.84 c 1.875,-0.33 3.764,-0.6 5.624,-1.002 5.193,-1.124 10.542,-1.825 15.517,-3.581 6.358,-2.244 10.619,-6.703 10.789,-14.026 0.018,-0.778 0.101,-1.7 0.52,-2.299 2.377,-3.397 4.865,-6.716 7.19,-9.892 4.026,5.137 0.875,17.603 -6.517,26.552 -7.085,8.576 -22.64,9.222 -33.123,4.248 m -144.633,-350.033 c -0.885,-8.869 -5.808,-13.479 -15.56,-14.569 -12.297,-1.375 -20.25,2.806 -23.81,12.838 -3.925,-2.125 -6.654,-4.959 -5.606,-9.589 0.931,-4.116 3.858,-7.189 8.246,-6.808 13.972,1.213 27.91,2.836 41.843,4.461 1.144,0.134 2.771,1.28 3.111,2.307 1.803,5.448 -2.181,10.778 -8.224,11.36 m 81.602,426.683 c 1.153,-4.032 3.869,-4.284 7.021,-3.627 6.929,1.445 9.682,6.7 6.378,13.112 -5.288,10.264 -14.469,15.582 -25.344,17.683 -4.202,0.811 -9.032,0.234 -13.175,-1.028 -4.212,-1.283 -5.114,-5.836 -3.318,-10.742 1.243,-3.396 3.367,-4.859 6.993,-3.613 -1.68,8.735 2.244,13.281 10.797,11.404 4.835,-1.061 9.84,-3.547 13.619,-6.748 7.424,-6.292 6.008,-12.765 -2.971,-16.441 M -349.43,-204.099 c -8.669,-2.324 -12.502,-8.626 -15.683,-15.356 -3.627,-7.673 -2.269,-13.854 4.704,-18.715 5.93,-4.134 12.321,-7.722 18.833,-10.88 9.299,-4.508 14.495,-2.736 19.842,6.108 0.662,1.095 0.898,3.688 0.342,4.045 -1.537,0.985 -3.762,1.85 -5.408,1.46 -1.879,-0.444 -3.421,-2.298 -5.117,-3.531 -7.741,-5.626 -16.597,-4.68 -24.656,2.632 -6.282,5.7 -7.402,13.604 -2.502,21.544 2.601,4.215 5.992,7.941 9.645,12.693 m 110.603,358.828 c -0.548,9.227 -5.316,14.894 -13.917,16.198 -10.789,1.635 -20.776,-1.944 -30.718,-5.369 -8.733,-3.009 -11.879,-12.176 -7.039,-20.585 2.058,0.416 4.165,0.842 6.284,1.271 -2.605,10.313 -0.457,14.329 9.34,17.052 4.636,1.289 9.498,2.01 14.305,2.387 10.181,0.798 13.977,-2.168 16.254,-12.187 1.846,0.415 3.692,0.829 5.491,1.233 m 2.632,-404.716 c 0.529,0.126 1.058,0.253 1.587,0.379 1.589,-5.435 2.706,-11.07 4.896,-16.251 2.388,-5.651 7.108,-9.794 13.322,-10.02 5.838,-0.212 11.822,0.914 17.589,2.157 6.155,1.327 7.672,7.383 10.686,12.185 0.408,-2.771 0.354,-5.328 -0.656,-7.425 -1.102,-2.288 -3.089,-4.15 -4.761,-6.288 7.169,1.669 11.789,8.996 9.11,15.415 -0.882,2.113 -4.075,3.519 -6.512,4.509 -0.494,0.2 -3.21,-2.826 -3.418,-4.545 -1.113,-9.164 -1.094,-9.425 -10.187,-10.98 -2.691,-0.46 -5.474,-0.616 -8.207,-0.557 -13.276,0.29 -21.147,9.679 -19.208,22.896 0.431,2.936 1.235,5.818 1.945,9.088 -7.468,-5.194 -9.916,-14.274 -7.141,-25.172 1.663,-6.528 4.929,-9.802 10.428,-10.435 -7.034,7.05 -10.556,15.272 -9.473,25.044 m 165.825,80.821 c 8.433,-9.338 17.998,-15.232 28.623,-4.774 12.528,12.333 12.234,24.38 -4.208,34.371 9.615,-0.204 13.021,-6.666 15.866,-14.281 0.954,6.874 -4.901,14.106 -14.296,18.377 -5.289,2.404 -9.196,1.852 -11.487,-0.767 5.505,-4.504 11.69,-8.442 16.386,-13.709 5.248,-5.887 4.461,-12.894 -0.417,-19.102 -4.623,-5.885 -11.045,-7.912 -18.161,-4.496 -4.86,2.333 -9.037,6.097 -13.485,9.269 -1.077,0.768 -2.018,1.727 -3.203,2.755 -2.414,-8.437 0.158,-14.224 8.289,-19.607 6.973,-4.617 11.998,-5.034 16.53,-1.371 -11.534,-0.159 -21.973,6.241 -20.437,13.335 m -346.009,89.553 c 4.961,1.72 6.853,5.835 6.796,12.538 -0.112,13.082 0.097,26.167 0.115,39.251 0.001,1.202 -0.225,3.365 -0.668,3.453 -3.232,0.641 -6.771,1.699 -9.746,0.897 -1.681,-0.453 -3.649,-4.298 -3.44,-6.414 0.501,-5.072 1.632,-10.261 3.552,-14.979 4.226,-10.384 5.172,-20.958 3.574,-31.909 -0.13,-0.896 -0.121,-1.813 -0.183,-2.837 m 374.722,-101.236 c -4.965,-2.503 -4.938,-5.792 -3.013,-10.126 3.71,-8.357 6.191,-8.825 12.577,-2 2.069,2.212 4.354,5.41 6.868,5.752 4.267,0.581 5.5,3.415 7.222,6.173 1.71,2.74 4.261,5.212 1.985,9.117 -0.584,1.001 0.691,3.339 1.514,4.845 1.077,1.971 2.669,3.654 3.829,5.588 2.116,3.53 1.158,6.21 -2.848,6.66 -3.796,0.427 -7.705,-0.094 -11.56,-0.272 -1.146,-0.053 -2.28,-0.356 -3.42,-0.545 11.661,-7.759 11.964,-11.809 3.257,-19.281 -0.691,-0.593 -1.325,-1.388 -1.676,-2.22 -3.784,-8.96 -6.698,-9.717 -14.735,-3.691 m -212.212,377.335 c 4.926,-1.264 8.495,-3.77 8.623,-9.176 0.088,-3.709 -1.803,-6.55 -5.335,-7.94 -5.387,-2.121 -8.935,0.675 -11.254,4.153 -5.148,-1.092 -9.762,-2.07 -14.635,-3.103 -1.759,-5.935 -4.342,-8.659 -8.84,-8.595 -4.172,0.059 -7.253,2.083 -8.289,6.173 -1.761,6.959 2.643,9.997 9.562,11.906 -12.061,1.503 -17.592,-5.628 -14.364,-16.67 1.859,-6.362 4.811,-7.76 10.86,-5.255 2.984,1.235 5.941,2.808 9.065,3.38 9.688,1.772 19.438,3.222 29.188,4.635 8.571,1.242 11.539,5.738 8.885,13.844 -1.661,5.072 -6.332,7.471 -13.466,6.648 M -422.515,36.599 c -4.698,-13.774 -9.398,-27.551 -14.093,-41.316 12.33,-4.329 21.38,0.228 25.37,12.029 4.095,12.109 2.568,24.793 -11.277,29.287 m 37.868,-229.012 c -1.004,-0.331 -1.913,-0.601 -2.801,-0.93 -9.918,-3.67 -17.758,-1.255 -23.777,7.336 -3.899,5.565 -3.288,10.127 1.97,14.392 1.39,1.128 2.857,2.163 4.288,3.24 -0.188,0.243 -0.377,0.487 -0.566,0.73 -3.045,-1.556 -6.09,-3.111 -9.135,-4.667 -0.395,0.666 -0.79,1.333 -1.185,2 3.287,2.247 6.574,4.495 10.681,7.304 -5.511,-0.419 -8.221,-5.729 -13.559,-3.574 2.529,1.811 5.059,3.623 8.446,6.049 -9.562,-2.423 -14.604,-9.034 -12.23,-16.023 2.871,-8.457 7.019,-16.379 13.986,-22.369 6.846,-5.887 14.475,-5.376 20.629,1.209 0.766,0.82 1.747,1.438 3.04,2.481 -0.022,-6.177 -3.044,-8.459 -14.18,-11.558 6.368,-3.074 15.928,0.552 20.034,7.67 -1.835,2.183 -3.693,4.393 -5.641,6.71 m 254.702,-60.673 c 8.757,-7.47 8.332,-14.571 -1.071,-20.212 -2.335,-1.4 -4.912,-2.523 -7.516,-3.326 -8.359,-2.578 -14.134,1.392 -14.912,10.044 -0.106,1.179 -0.234,2.356 -0.378,3.799 -5.042,-4.001 -6.68,-12.04 -3.872,-17.325 2.344,-4.411 8.414,-6.348 14.642,-3.864 8.706,3.474 17.245,7.389 25.741,11.36 6.497,3.036 8.554,10.83 4.736,16.793 -3.875,6.054 -11.199,7.319 -17.37,2.731 m 42.451,323.962 c 1.55,-0.398 3.323,-1.468 4.161,-0.968 5.529,3.296 11.294,6.419 16.146,10.574 6.934,5.94 7.8,13.507 3.619,21.51 -5.672,10.858 -14.634,16.662 -23.229,14.968 -1.415,-0.279 -2.836,-0.74 -4.133,-1.367 -9.019,-4.359 -15.005,-11.608 -19.032,-20.559 -0.503,-1.117 0.193,-2.773 0.333,-4.179 0.481,-0.032 0.962,-0.063 1.442,-0.095 1.746,2.301 3.321,4.759 5.275,6.867 3.393,3.661 6.677,7.561 10.631,10.531 5.497,4.131 11.34,3.365 16.352,-1.175 7.667,-6.947 8.647,-16.984 1.763,-24.659 -3.614,-4.03 -8.245,-7.148 -13.328,-11.448 m -258.214,49.439 c 15.584,0.93 27.323,11.061 27.831,24.704 0.217,5.831 -1.016,7.698 -6.815,7.226 -14.382,-1.171 -25.925,-8.133 -35.161,-19.004 -2.486,-2.925 -1.724,-6.142 1.408,-7.811 4.014,-2.138 8.471,-3.448 12.737,-5.115 m -15.013,0.799 c 1.516,-2.575 2.871,-5.263 4.578,-7.704 5.404,-7.724 11.134,-9.501 19.689,-5.443 6.111,2.899 12.012,6.35 17.657,10.083 3.163,2.092 6.093,4.921 8.289,8.014 4.667,6.572 2.603,15.96 -3.933,20.167 -2.849,-23.42 -22.863,-34.216 -46.28,-25.117 m 234.013,-16.617 c 0.611,-0.174 1.222,-0.349 1.832,-0.524 6.925,5.705 12.835,12.23 16.17,20.754 2.734,6.986 1.862,13.499 -3.643,18.754 -5.12,4.887 -11.262,8.567 -18.417,8.899 -3.95,0.184 -8.69,-0.63 -11.865,-2.78 -9.261,-6.27 -12.437,-16.627 -15.674,-26.918 2.11,0.731 3.751,1.906 4.704,3.493 4.003,6.664 7.649,13.591 14.954,17.387 6.391,3.321 12.319,1.667 17.7,-2.215 5.178,-3.735 6.911,-9.347 4.731,-15.085 -2.256,-5.938 -5.909,-11.338 -8.843,-17.03 -0.758,-1.471 -1.11,-3.151 -1.649,-4.735 m -231.665,-330.609 c -0.34,-8.19 7.921,-15.448 15.891,-14.871 -1.183,1.459 -2.81,3.165 -4.071,5.108 -1.119,1.726 -3.008,4.246 -2.457,5.465 0.879,1.944 3.31,3.851 5.437,4.392 2.471,0.63 5.322,-0.23 8.17,-0.456 0.56,-3.847 1.085,-7.447 1.692,-11.618 4.974,4.086 10.037,7.526 15.436,1.16 4.363,7.396 4.852,12.954 0.25,16.935 -5.729,4.955 -12.344,8.883 -19.013,13.561 -3.277,-15.213 -7.346,-18.801 -21.335,-19.676 m 170.608,359.125 c 8.244,-0.045 15.736,3.451 19.374,11.711 3.135,7.119 5.579,14.89 6.424,22.583 1.093,9.946 -3.071,18.499 -12.139,23.634 -9.419,5.334 -19.3,6.541 -29.077,0.873 -11.325,-6.565 -18.391,-25.637 -15.239,-40.371 2.215,-10.35 11.997,-16.87 27.443,-18.281 0.804,-0.073 1.614,-0.077 3.214,-0.149 M -37.739,-78.342 c -2.645,2.939 -4.248,5.764 -1.517,9.597 0.701,0.984 -0.1,4.064 -1.216,5.138 -4.588,4.413 -13.588,2.05 -15.031,-4.033 -2.527,-10.651 -4.56,-21.419 -6.797,-32.126 6.177,-2.396 10.108,0.218 9.736,6.496 -0.248,4.191 -1.072,8.39 -0.902,12.556 0.233,5.714 4.219,9.26 9.033,8.704 -0.049,-0.459 0.06,-1.202 -0.17,-1.329 -7.311,-4.034 -5.954,-10.484 -5.036,-17.02 1.444,-10.278 -2.428,-14.236 -12.635,-13.417 -0.41,0.033 -0.852,-0.347 -1.249,-0.522 0.236,-5.223 2.752,-8.163 7.283,-8.596 4.259,-0.406 6.247,1.683 7.504,6.939 0.662,2.77 1.616,5.771 3.366,7.908 2.396,2.926 2.808,5.687 2.326,9.282 -0.574,4.279 -1,9.027 5.305,10.423 m -89.023,-150.377 c 0.498,-0.128 0.996,-0.255 1.493,-0.383 -1.017,1.985 -1.981,3.999 -3.061,5.948 -2.811,5.073 -6.964,8.974 -12.887,7.12 -7.289,-2.281 -14.266,-5.712 -21.088,-9.211 -1.476,-0.757 -1.718,-3.92 -2.806,-6.678 6.236,0.176 10.76,-1.027 12.23,-6.465 1.524,-5.64 -2.399,-8.472 -7.074,-10.854 0.997,-0.795 1.53,-1.41 2.204,-1.729 8.015,-3.795 21.681,2.008 24.948,10.261 1.641,4.144 4.004,8.003 6.041,11.991 m -57.341,-24.885 c 0.245,10.923 -3.873,17.08 -12.809,17.85 -7.848,0.676 -15.809,0.229 -23.712,-0.004 -3.645,-0.108 -5.761,-2.204 -5.684,-6.16 8.425,0.379 13.426,-2.479 15.228,-8.539 1.91,-6.423 -0.934,-11.382 -9.109,-16.528 4.674,-0.71 9.424,-1.306 14.062,-0.819 7.678,0.805 7.647,1.098 8.445,8.666 0.641,6.075 4.083,8.424 10.074,6.824 1.078,-0.288 2.105,-0.768 3.505,-1.29 M -386.7,66.318 c 0.431,-0.386 0.862,-0.771 1.293,-1.157 -0.546,-1.087 -0.934,-2.298 -1.669,-3.238 -1.89,-2.417 -3.885,-4.757 -5.926,-7.049 -3.433,-3.857 -4.088,-7.388 -1.401,-9.868 3.425,-3.161 6.571,-1.145 9.574,0.986 0.655,0.464 1.365,0.943 1.82,1.579 4.126,5.775 8.201,11.586 12.747,18.034 -4.639,4.432 -9.035,9.16 -13.985,13.211 -4.831,3.954 -7.884,3.271 -12.153,-1.32 -3.296,-3.544 -7.12,-6.667 -9.985,-10.515 -1.781,-2.392 -3.115,-5.805 -3.06,-8.73 0.112,-6.076 4.747,-8.288 9.684,-4.655 3.586,2.639 6.423,6.292 9.614,9.473 1.118,1.114 2.296,2.168 3.447,3.249 m 94.917,-305.596 c 4.327,-2.215 6.615,-5.867 6.221,-10.894 -0.42,-5.367 -4.15,-7.934 -8.896,-9.519 8.05,-8.416 23.159,-7.504 29.542,1.786 2.902,4.222 5.891,7.201 11.313,5.652 1.44,6.862 -0.224,11.488 -6.014,13.926 -6.366,2.679 -13.03,4.768 -19.717,6.537 -8.579,2.268 -9.177,1.709 -12.449,-7.488 M 2.772,-24.826 c -4.66,-9.123 -10.155,-12.045 -16.276,-8.657 -6.48,3.588 -8.985,13.605 -4.229,19.946 1.978,2.637 5.785,5.005 8.972,5.315 3.049,0.297 6.374,-2.236 9.266,-3.4 -3.822,10.781 -10.664,15.068 -20.793,12.305 0.549,-5.742 -0.093,-11.324 -5.284,-15.108 -5.075,-3.7 -10.738,-3.75 -17.412,-1.621 0.79,-5.848 1.481,-10.961 2.178,-16.125 15.329,3.045 20.215,0.179 27.445,-15.375 11.772,0.631 19.131,10.994 16.133,22.72 m -15.24,-91.009 c 6.097,3.275 12.077,6.367 17.9,9.73 1.025,0.592 1.792,2.257 2,3.537 1.927,11.858 -1.273,21.731 -11.525,28.745 -8.38,5.734 -17.928,7.953 -27.791,9.121 -1.214,0.144 -2.53,-0.58 -4.246,-1.016 1.112,-2.043 1.849,-3.398 2.713,-4.986 -1.481,-0.816 -2.762,-1.52 -5.204,-2.864 3.35,-2.03 5.703,-4.025 8.421,-4.978 5.066,-1.776 7.47,-5.425 7.147,-10.283 -0.283,-4.258 -1.913,-8.426 -2.986,-12.79 7.244,-1.762 10.373,-8.33 13.571,-14.216 m -457.758,-0.524 c -0.653,-0.556 -1.306,-1.113 -1.959,-1.669 1.521,-1.652 3.21,-3.182 4.53,-4.981 3.003,-4.092 6.948,-7.985 8.314,-12.608 0.866,-2.929 -2.217,-7.026 -3.621,-10.847 3.058,-0.809 5.444,1.081 7.234,3.891 1.118,1.755 1.732,3.822 2.723,5.668 2.352,4.379 6.843,6.064 11.029,4.236 3.665,-1.601 5.382,-5.825 4.142,-10.255 -0.329,-1.174 -0.734,-2.327 -1.212,-3.831 7.717,3.654 8.376,5.876 4.14,12.573 -2.904,4.592 -0.693,9.906 4.529,9.708 2.69,-0.102 5.461,-2.199 7.896,-3.839 2.686,-1.807 5.03,-4.124 8.661,-7.175 0.825,3.998 1.697,6.425 1.764,8.874 0.215,7.936 -2.814,14.758 -7.652,20.938 -2.304,2.943 -4.796,5.711 -8.804,4.665 -4.557,-1.19 -2.754,-5.23 -2.713,-8.199 0.122,-8.767 -4.869,-12.163 -12.302,-7.414 -4.492,2.87 -7.835,7.506 -11.852,11.176 -1.112,1.016 -2.788,1.415 -4.205,2.097 0.395,0.168 0.789,0.335 1.183,0.502 2.467,-3.42 4.885,-6.877 7.411,-10.253 4.161,-5.562 4.719,-10.662 1.383,-13.519 -3.632,-3.11 -7.725,-2.087 -13.064,3.162 -2.464,2.423 -5.034,4.737 -7.555,7.1 m -5.978,-1.135 c 3.99,11.971 13.118,16.879 23.985,19.503 10.405,2.512 20.863,4.104 31.228,-1.067 2.145,7.489 6.183,12.332 14.87,11.343 -0.709,3.347 -1.33,6.275 -2.002,9.443 -5.209,-4.625 -10.376,-6.409 -17.281,-6.044 -5.171,0.273 -10.972,2.045 -16.35,-1.604 -4.478,-3.038 -9.786,-2.544 -14.884,-0.311 -1.557,0.682 -3.759,0.848 -5.355,0.316 -6.707,-2.237 -13.323,-4.084 -21.266,0.424 2.535,-11.498 4.795,-21.751 7.055,-32.003 m 287.398,-117.156 c 11.865,-10.643 11.762,-33.344 -0.426,-43.692 9.091,-1.499 11.07,-8.129 11.453,-16.34 8.214,2.27 15.822,4.372 24.727,6.833 -6.183,2.713 -8.903,6.664 -8.939,11.591 -0.035,4.687 1.247,9.383 1.972,14.223 -12.502,6.902 -16.997,18.609 -12.395,32.727 -2.154,1.433 -4.745,2.464 -6.251,4.357 -1.454,1.83 -1.789,4.548 -2.676,7.048 -0.999,-0.331 -2.024,-0.672 -3.078,-1.022 3.676,-7.585 2.96,-10.183 -4.387,-15.725 m -158.352,391.716 c -0.745,-0.512 -1.49,-1.024 -2.235,-1.535 -3.126,5.203 -6.252,10.406 -9.55,15.896 -2.737,-1.634 -5.28,-3.005 -7.636,-4.645 -0.767,-0.534 -1.375,-1.732 -1.492,-2.694 -0.709,-5.863 -1.491,-11.735 -1.738,-17.625 -0.094,-2.252 0.462,-5.619 1.959,-6.61 2.613,-1.732 5.914,-2.787 9.306,0.03 9.284,7.71 19.373,13.973 31.678,15.791 3.487,0.515 7.044,5.117 6.879,8.438 -0.221,4.457 -2.893,5.946 -7.093,6.089 -7.03,0.238 -13.518,1.937 -17.373,9.071 -4.13,-2.227 -7.721,-4.164 -11.409,-6.153 3.135,-5.781 5.919,-10.917 8.704,-16.053 m 210.355,-354.488 c 8.708,-4.508 9.466,-7.792 4.498,-15.99 8.489,-9.598 15.779,-19.362 11.457,-33.398 10.407,-2.657 14.555,-9.662 12.933,-21.283 10.472,7.022 19.872,13.326 30.293,20.314 -19.471,2.111 -36.58,20.989 -39.675,42.239 -7.741,0.448 -11.829,4.798 -12.596,12.872 -2.463,-1.694 -4.435,-3.051 -6.91,-4.754 m -229.351,8.196 c 0.799,0.01 1.599,0.02 2.398,0.03 1.043,4.945 2.367,9.856 2.974,14.854 0.212,1.743 -0.982,3.984 -2.162,5.512 -5.031,6.515 -10.196,12.936 -15.558,19.18 -1.181,1.375 -3.364,2.641 -5.091,2.648 -4.489,0.017 -9.159,-0.081 -13.413,-1.316 -3.162,-0.918 -6,-3.453 -8.523,-5.769 -0.787,-0.723 -0.735,-3.594 0.055,-4.606 6.253,-8.013 6.246,-8.773 -1.687,-15.42 -2.323,-1.946 -4.487,-4.143 -2.828,-7.435 2.736,-5.431 6.685,-9.807 13.162,-10.07 3.06,-0.124 6.455,0.777 9.135,2.244 0.998,0.547 0.392,4.029 0.512,6.173 0.018,0.322 -0.009,0.647 0.011,0.969 0.297,4.798 4.083,9.741 8.194,10.285 5.101,0.675 6.399,-3.428 8.059,-6.903 1.64,-3.433 3.179,-6.915 4.762,-10.376 M -32.893,37.31 c -5.501,4.204 -10.074,7.749 -14.724,11.189 -0.569,0.421 -1.551,0.338 -2.348,0.385 -8.465,0.493 -11.108,-2.774 -9.504,-11.719 1.092,-6.096 -0.636,-7.928 -6.778,-7.186 -4.623,0.559 -7.287,3.582 -8.651,8.572 -1.25,4.575 -3.184,8.965 -4.816,13.436 -0.715,-0.185 -1.43,-0.37 -2.145,-0.555 0.283,-2.187 0.038,-4.624 0.937,-6.519 4.157,-8.759 8.557,-17.406 13.061,-25.993 0.811,-1.547 2.297,-3.096 3.855,-3.835 9.306,-4.413 17.646,-0.102 25.957,3.431 0.74,0.315 1.244,2.566 0.957,3.688 -1.588,6.203 -5.064,10.763 -11.692,12.284 -1.168,0.269 -2.256,0.884 -4.16,1.655 8.1,3.457 13.578,-1.042 20.285,-15.463 2.592,1.048 5.195,2.101 8.23,3.328 -1.556,1.397 -2.716,2.254 -3.649,3.311 -2.738,3.103 -3.828,6.892 -1.167,10.178 3.484,4.303 7.761,7.965 12.429,12.634 -0.083,7.369 -10.796,14.439 -20.631,12.547 2.592,-3.488 6.099,-6.777 7.765,-10.823 1.937,-4.707 -0.845,-9.254 -3.211,-14.545 m -194.645,-316.388 c -9.157,3.223 -12.715,9.737 -13.518,18.293 -0.783,8.338 0.34,16.086 6.502,22.675 -5.425,2.669 -8.332,6.562 -7.649,12.744 -2.141,0.201 -3.961,0.372 -5.966,0.561 2.108,-7.922 1.536,-9.461 -4.784,-13.782 7.077,-13.713 1.13,-32.025 -11.904,-38.57 1.831,-3.471 4.86,-6.84 5.146,-10.428 0.28,-3.52 -2.23,-7.261 -3.663,-11.323 8.673,-0.551 18.05,-1.145 27.886,-1.769 -4.868,10.91 -3.255,15.261 7.95,21.599 M 19.584,-36.554 c -0.238,0.033 -0.479,0.096 -0.713,0.077 -0.053,-0.004 -0.084,-0.29 -0.124,-0.447 -2.415,-9.565 -8.657,-13.999 -15.704,-10.638 -2.799,1.334 -4.516,0.87 -6.953,-0.511 -12.616,-7.15 -24.988,-6.005 -35.958,3.215 -2.925,-6.436 -7.664,-9.801 -15.169,-8.001 v -7.468 c 6.011,2.825 11.569,2.421 17.036,-0.637 0.907,-0.507 2.163,-0.534 3.259,-0.538 9.91,-0.039 19.256,-2.484 27.964,-7.048 3.066,-1.608 5.603,-2.05 9.046,-1.115 10.122,2.751 15.81,-2.963 13.566,-13.184 -0.311,-1.42 -0.496,-2.959 -1.189,-4.19 -4.271,-7.582 -3.633,-16.259 -5.517,-24.366 -0.545,-2.347 -0.083,-4.928 -0.083,-8.14 7.028,14.673 12.642,60.039 10.539,82.991 m -69.272,-150.789 c -20.812,-3.535 -32.827,11.473 -26.496,32.621 -4.081,0.298 -8.208,0.666 -12.344,0.843 -0.818,0.035 -1.935,-0.443 -2.459,-1.067 -3.282,-3.899 -6.434,-7.908 -9.854,-12.159 8.638,-2.066 11.663,-7.579 10.615,-15.522 11.138,-2.059 18.293,-9.417 25.277,-16.9 7.315,-7.836 12.193,-16.62 8.83,-28.089 0.467,-0.194 0.933,-0.387 1.4,-0.581 10.182,12.148 20.364,24.295 30.546,36.442 -0.424,0.378 -0.848,0.756 -1.271,1.133 -1.274,-1.331 -2.535,-2.674 -3.826,-3.989 -1.359,-1.385 -2.653,-2.855 -4.14,-4.091 -4.669,-3.883 -8.521,-3.359 -11.68,1.851 -1.822,3.005 -3.092,6.345 -4.598,9.508 M -432.231,98.31 c 5.301,-4.224 9.467,-7.305 13.351,-10.708 3.738,-3.275 8.536,-5.583 11.192,-9.928 -0.476,-0.548 -0.951,-1.097 -1.426,-1.646 -7.876,6.123 -15.753,12.246 -23.67,18.401 -3.736,-6.569 -3.551,-12.031 1.022,-16.894 2.615,-2.781 5.801,-5.174 9.091,-7.139 6.626,-3.957 12.045,-3.767 17.13,1.916 6.208,6.938 11.982,14.438 16.813,22.383 4.658,7.66 2.792,14.678 -3.562,19.981 -7.805,6.513 -15.492,7.584 -22.46,1.703 -6.212,-5.243 -11.404,-11.695 -17.481,-18.069 m 369.493,-235.322 c 7.449,7.259 14.767,7.758 22.45,2.983 6.827,-4.244 12.784,-9.304 14.638,-17.71 7.796,0.59 15.797,3.012 20.559,-6.939 4.304,10.662 8.232,20.394 12.121,30.028 -20.635,-0.758 -39.695,0.324 -55.788,14.507 -6.39,-3.828 -12.21,-2.21 -17.499,3.968 -1.341,-3.224 -2.483,-5.972 -3.669,-8.825 6.176,-4.166 7.53,-10.142 7.188,-18.012 m -225.309,-136.766 c -10.236,3.879 -22.509,5.3 -23.431,18.952 -0.76,11.251 3.514,20.871 12.623,25.584 0.361,5.98 0.646,10.706 0.968,16.036 -2.269,0.953 -5.469,2.296 -8.668,3.64 0.661,-0.908 1.323,-1.816 1.985,-2.725 -2.743,-2.583 -5.486,-5.166 -8.702,-8.195 4.057,-5.398 1.34,-12.576 -2.705,-19.565 -3.966,-6.853 -8.223,-13.499 -15.436,-14.902 0.494,-4.683 2.185,-9.221 1.017,-12.834 -1.195,-3.693 -5.194,-6.479 -8.36,-10.114 12.731,-4.631 25.967,-9.445 39.716,-14.446 -1.139,10.803 0.202,12.982 10.993,18.569 M -417.871,-7.139 c -8.947,-4.543 -17.933,-2.151 -26.884,1.19 -13.64,5.091 -16.589,9.196 -16.875,23.514 -0.009,0.461 -0.242,0.918 -0.409,1.515 -1.229,0.296 -2.491,0.887 -3.723,0.829 -1.839,-0.086 -3.656,-0.63 -5.483,-0.979 0.388,-1.794 0.589,-3.657 1.21,-5.366 0.836,-2.303 1.997,-4.488 3.457,-7.682 0.609,2.89 1.094,5.19 1.726,8.187 3.205,-3.344 3.202,-6.437 1.258,-9.227 -2.01,-2.884 -4.994,-1.991 -7.34,-0.354 -2.697,1.883 -5.057,4.248 -8.329,7.062 -2.07,-13.397 -4.039,-26.137 -6.198,-40.104 12.545,9.155 24.543,6.972 35.288,5.023 4.906,0.679 9.329,0.093 12.166,1.942 5.323,3.468 8.37,0.729 12.035,-2.665 4.326,7.19 10.97,4.33 18.085,4.84 -3.164,3.89 -6.328,7.779 -9.984,12.275 m -46.192,-144.62 c 7.336,-13.052 14.198,-25.26 21.059,-37.468 3.334,8.74 8.719,12.237 17.004,11.298 -1.281,10.044 3.326,17.102 12.816,20.3 1.346,0.453 3.107,1.437 3.523,2.592 2.251,6.24 7.026,9.122 13.062,10.261 4.379,0.827 8.85,1.171 13.631,1.775 -2.452,4.154 -4.719,7.995 -6.414,10.865 -3.678,-1.339 -6.863,-3.449 -9.998,-3.377 -3.229,0.074 -6.409,2.274 -9.676,3.569 -8.661,-15.665 -34.3,-25.444 -55.007,-19.815 m 107.16,-23.424 c -0.316,-0.938 -0.532,-1.349 -0.588,-1.781 -1.313,-10.038 -4.9,-18.459 -15.442,-22.055 -0.711,-0.243 -1.336,-0.906 -1.864,-1.496 -6.304,-7.028 -13.683,-11.782 -22.474,-10.991 -1.255,-4.03 -1.533,-8.093 -3.619,-10.718 -2.06,-2.592 -5.949,-3.73 -9.614,-5.839 8.603,-7.39 17.466,-15.002 25.707,-22.08 2.244,4.062 3.383,8.295 6.141,10.513 2.835,2.278 7.251,2.588 10.945,3.75 -5.249,12.607 -1.086,23.33 13.726,34.249 -2.717,8.184 -1.745,10.581 7.261,17.353 -3.351,2.994 -6.643,5.936 -10.179,9.095 m 298.951,-45.046 c -0.624,2.492 -0.824,5.194 -1.942,7.438 -5.585,11.213 -14.161,19.598 -25.25,25.336 -4.94,2.555 -10.062,1.827 -14.178,-1.539 -4.207,-3.442 -8.129,-7.421 -11.422,-11.741 -3.961,-5.195 -4.029,-11.283 -0.85,-16.962 5.631,-10.062 13.276,-18.464 23.346,-24.099 3.235,-1.811 7.883,-2.475 11.566,-1.834 8.902,1.552 18.394,14.257 18.73,23.401 m -372.484,163.998 c -1.85,-3.132 -3.206,-5.665 -4.803,-8.036 -0.871,-1.294 -1.976,-2.59 -3.275,-3.409 -6.211,-3.913 -6.176,-7.985 0.427,-11.463 3.426,-1.805 7.785,-4.092 10.722,-0.809 1.623,1.815 1.331,6.529 0.277,9.324 -2.827,7.497 -2.318,14.881 -1.18,22.48 0.694,4.629 1.446,9.375 1.104,13.989 -0.246,3.315 -2.095,6.578 -3.605,9.681 -0.336,0.691 -2.256,0.83 -3.424,0.771 -0.362,-0.018 -1.06,-1.62 -0.901,-2.341 0.828,-3.749 0.156,-7.425 -3.438,-8.617 -2.912,-0.966 -6.479,0.043 -9.756,0.175 -2.797,-1.439 -6.491,-3.651 -9.819,-1.069 -2.576,1.999 -3.617,5.975 -5.926,10.123 -8.178,1.569 -16.088,-1.228 -17.899,-5.908 2.272,-3.974 5.056,-6.84 5.431,-9.994 0.498,-4.18 -3.395,-5.938 -6.938,-7.66 -1.275,-0.62 -2.458,-3.976 -1.899,-5.364 2.037,-5.051 4.376,-10.112 7.468,-14.568 2.925,-4.215 7.671,-4.852 12.43,-2.946 -7.702,7.922 -8.252,15.319 -1.184,19.854 2.856,-5.203 9.818,-8.163 8.098,-15.952 2.17,4.223 2.734,8.119 -0.781,11.834 -3.663,3.873 -6.481,8.201 -5.591,13.875 0.22,1.399 1.183,2.681 2.008,4.454 1.251,-4.952 1.194,-9.686 3.461,-12.629 4.271,-5.546 7.587,-10.816 5.128,-17.975 4.236,-0.637 4.34,-0.566 6.429,2.924 2.487,4.154 4.763,8.469 7.61,12.362 1.545,2.113 3.808,4.393 6.714,2.853 -3.926,-5.276 -7.745,-10.408 -11.563,-15.539 4.871,0.202 7.221,2.278 8.163,6.308 0.811,3.471 3.366,4.449 6.512,3.272 m -27.559,86.439 c 4.863,10.339 13.121,14.669 24.144,13.227 9.995,-1.307 19.112,-4.671 25.38,-13.55 4.989,5.606 10.796,4.998 16.986,2.887 1.3,2.401 2.485,4.592 4.025,7.436 -7.481,-0.845 -11.108,2.524 -12.069,8.864 -11.825,-2.194 -14.07,5.363 -13.103,15.136 -9.934,1.884 -14.216,3.87 -19.764,9.168 -6.431,6.141 -8.596,13.467 -4.091,21.062 4.726,7.966 10.42,15.648 16.967,22.175 10,9.969 22.75,8.769 31.851,-2.05 2.229,-2.65 3.566,-6.052 5.464,-9.373 5.931,-0.721 8.389,-2.763 6.812,-7.211 -1.603,-4.521 0.633,-6.47 2.395,-7.79 5.031,1.388 9.1,3.392 13.18,3.413 5.021,0.025 7.02,-4.244 8.13,-9.242 1.738,1.913 3.596,3.887 3.713,5.958 0.229,4.073 -0.51,8.201 -0.895,12.87 -5.6,2.127 -9.502,7.172 -12.812,12.876 -3.442,5.929 -4.091,12.093 -1.56,18.608 -1.281,0.41 -2.184,0.727 -3.103,0.989 -6.132,1.746 -7.919,4.48 -6.809,10.715 0.396,2.226 1.268,4.377 1.562,6.609 0.429,3.25 0.531,6.543 0.773,9.818 -0.478,0.156 -0.956,0.313 -1.434,0.47 -42.971,-28.877 -74.564,-67.095 -94.903,-115.757 7.744,2.564 12.882,1.484 14.269,-2.432 1.198,-3.381 -1.522,-7.73 -6.692,-9.262 1.153,2.094 1.9,3.488 2.682,4.863 1.705,2.996 0.52,5.81 -2.669,5.109 -3.13,-0.688 -6.936,-2.684 -8.416,-5.269 -1.476,-2.577 -0.626,-6.614 -0.339,-9.971 0.058,-0.682 2.157,-1.19 2.487,-1.358 -0.594,2.684 -2.338,5.824 -1.533,8.037 1.231,3.386 4.616,5.408 8.923,4.843 -0.998,-1.574 -2.302,-2.722 -3.701,-3.741 -3.483,-2.536 -3.448,-4.203 0.293,-6.409 1.089,-0.642 2.319,-1.043 3.857,-1.718 m 353.616,106.725 c 1.745,-10.78 -3.027,-19.114 -9.514,-26.641 -3.039,-3.527 -6.989,-6.262 -10.094,-9.743 -1.331,-1.492 -2.753,-4.608 -2.071,-5.879 2.271,-4.231 10.773,-3.168 12.896,1.246 6.332,13.16 15.178,23.277 30.83,25.048 0.34,1.548 0.545,2.989 0.975,4.36 2.013,6.419 7.629,10.438 13.757,8.64 11.831,-3.471 21.197,-10.586 26.232,-22.083 3.483,-7.952 -1.774,-15.935 -10.458,-17.025 -1.873,-0.236 -3.772,-0.263 -5.871,-0.4 -0.076,-6.967 -2.628,-12.72 -7.758,-16.856 -4.376,-3.527 -9.38,-6.266 -14.023,-9.474 -3.851,-2.661 -7.579,-5.497 -11.554,-8.395 2.365,-3.391 3.987,-5.717 5.798,-8.314 0.858,1.333 1.201,2.401 1.932,2.907 2.47,1.706 4.943,3.628 7.72,4.524 0.756,0.244 2.69,-2.751 3.896,-4.397 2.28,-3.11 7.226,-3.74 10.393,-1.203 2.87,2.298 3.267,7.481 -0.006,9.818 -4.383,3.129 -2.593,5.895 0.025,8.174 2.867,2.496 6.186,4.965 9.736,6.071 5.512,1.717 11.442,2.041 17.081,3.42 2.619,0.641 4.939,2.447 7.455,3.592 1.838,0.836 4.583,2.578 5.492,1.924 1.604,-1.153 2.95,-3.861 2.865,-5.852 -0.098,-2.29 -1.865,-4.509 -2.959,-6.87 12.507,-4.453 18.092,-14.464 20.492,-26.358 0.785,-3.888 0.015,-9.074 -2.111,-12.307 -2.475,-3.763 -5.896,-6.358 -1.316,-11.163 -5.255,-0.481 -9.684,-0.224 -13.692,-1.401 -6.65,-1.952 -13.072,-4.722 -19.513,-7.337 -8.582,-3.484 -17.129,-6.904 -27.281,-3.547 1.466,-4.613 2.701,-8.498 4.005,-12.604 7.938,4.583 13.358,1.611 17.437,-4.7 9.199,10.305 20.693,11.16 32.844,10.111 1.591,-0.138 3.806,0.266 4.826,1.307 5.55,5.667 12.197,5.627 16.962,-0.763 2.085,-2.796 3.438,-6.137 5.021,-9.043 -29.065,169.728 -214.42,255.958 -357.783,184.186 2.437,-1.85 4.298,-4.025 6.636,-4.852 3.132,-1.108 6.635,-1.165 9.977,-1.687 6.965,-1.087 10.408,-7.937 7.088,-14.176 -0.66,-1.239 -1.537,-2.363 -2.313,-3.539 15.068,-9.763 17.804,-16.889 12.72,-32.367 2.149,-1.538 4.249,-3.018 6.325,-4.532 2.322,-1.694 8.331,-0.147 9.595,2.441 1.568,3.208 3.204,6.384 4.794,9.541 -9.001,9.214 -11.015,20.224 -6.548,32.553 -7.047,2.992 -10.738,11.708 -8.609,20.042 1.813,7.099 8.528,11.17 16.579,10.177 1.458,-0.18 3.643,-0.494 4.356,0.289 5.653,6.209 11.928,6.372 18.683,2.467 8.999,6.058 19.497,5.18 23.432,-2.676 1.872,-3.739 2.49,-8.921 1.58,-12.98 -0.726,-3.24 -4.626,-5.768 -7.173,-8.677 10.865,-10.094 12.562,-18.94 6.261,-31.389 1.728,-2.292 3.724,-4.028 4.542,-6.205 2.031,-5.407 5.961,-4.58 10.232,-4.079 -3.373,7.649 -3.633,11.558 -0.02,15.153 2.197,2.186 2.225,4.129 1.844,6.819 -1.626,11.478 0.66,22.322 6.662,32.148 7.202,11.791 20.075,16.691 33.177,13.215 14.312,-3.796 22.716,-13.264 23.181,-27.499 0.401,-12.308 -2.892,-23.707 -11.298,-33.2 -0.721,-0.814 -1.473,-1.715 -1.834,-2.712 -1.547,-4.271 -2.953,-8.592 -4.513,-13.199 1.197,-0.458 2.989,-1.163 4.795,-1.831 5.508,-2.037 6.31,-1.697 8.74,3.743 0.594,1.329 1.089,2.703 1.661,4.043 4.968,11.636 9.603,23.531 22.549,28.724 -4.121,11.61 -1.092,18.163 8.826,19.861 13.353,2.287 32.51,-8.004 37.981,-20.402 3.699,-8.383 0.283,-15.172 -8.694,-17.279 -1.23,-0.289 -2.461,-0.576 -3.88,-0.908 m -128.753,-359.227 c 94.931,0.437 173.639,75.365 174.777,172.923 1.095,93.893 -72.896,173.466 -168.563,175.916 -99.9,2.559 -178.687,-73.487 -180.296,-172.319 -1.526,-93.745 73.257,-175.447 174.082,-176.52 m -48.591,-69.427 c -1.267,1.867 -3.469,3.702 -3.534,5.609 -0.063,1.843 2.076,3.761 2.806,4.934 -1.479,-1.252 -5.176,-2.86 -5.578,-5.068 -0.664,-3.642 2.784,-5.238 6.37,-5.399 5.031,-1.561 10.737,0.064 10.987,3.426 0.299,4.004 -2.841,5.11 -5.405,5.987 0.835,-1.978 2.899,-4.672 2.245,-5.824 -1.017,-1.792 -3.853,-2.591 -5.984,-3.682 -0.5,-0.256 -1.263,0 -1.907,0.017 m -207.213,242.762 c -0.715,141.575 113.073,256.774 255.572,257.24 141.562,0.463 255.208,-112.87 256.51,-252.759 1.329,-142.673 -112.413,-258.024 -253.01,-259.29 -141.809,-1.277 -258.281,112.6 -259.072,254.809" /></g><g
           transform="translate(494.712,311.304)"
           id="g40"><path
             id="path42"
             style="fill:#231f20;fill-opacity:1;fill-rule:nonzero;stroke:none"
             d="M 0,0 C -0.308,-0.461 -0.617,-0.922 -0.925,-1.383 0.4,-2.637 1.725,-3.892 3.051,-5.147 3.981,-4.109 4.912,-3.072 6.484,-1.32 3.558,-0.725 1.779,-0.362 0,0 m -13.331,160.223 c 3.322,-0.244 5.987,-0.44 9.399,-0.691 -3.24,5.333 -5.913,5.538 -9.399,0.691 m -31.218,-19.918 c -2.131,10.299 -2.131,10.299 -3.978,10.699 -0.235,-9.994 0.028,-10.759 3.978,-10.699 m -1.029,46.184 c 0.087,0.581 0.175,1.163 0.262,1.744 -4.503,0.195 -8.187,5.526 -14.741,0.952 5.64,-1.05 10.06,-1.873 14.479,-2.696 M -71.476,71.703 c -0.878,-2.005 -1.69,-3.862 -2.547,-5.819 1.419,-1.495 2.787,-2.935 4.468,-4.706 1.48,3.295 2.775,6.178 4.182,9.312 -2.076,0.412 -3.778,0.751 -6.103,1.213 M 2.257,12.41 C 0.666,10.088 -1.17,8.573 -0.966,7.42 -0.692,5.867 1.405,3.302 2.277,3.47 4.068,3.814 5.565,5.687 7.182,6.93 5.833,8.431 4.484,9.932 2.257,12.41 m -74.748,147.881 c -0.306,0.149 -0.611,0.298 -0.917,0.447 -2.724,-5.516 -5.527,-10.996 -8.071,-16.594 -0.32,-0.702 0.726,-2.024 1.139,-3.059 0.939,0.571 2.468,0.953 2.721,1.744 1.853,5.774 3.45,11.631 5.128,17.462 m 16.537,-25.385 h -9.387 c 1.329,-3.548 2.3,-6.403 3.541,-9.135 0.162,-0.357 2.382,-0.369 2.513,-0.059 1.172,2.763 2.089,5.633 3.333,9.194 m -39.972,-18.777 c 2.521,2.811 4.3,4.793 6.078,6.776 -1.362,1.051 -3.294,3.275 -3.982,2.941 -2.371,-1.153 -4.307,-3.2 -6.408,-4.906 1.139,-1.271 2.279,-2.543 4.312,-4.811 m 1.684,-11.714 c 2.667,2.72 4.523,4.613 6.38,6.506 -1.238,1.152 -3.025,3.513 -3.618,3.244 -2.413,-1.096 -4.459,-2.998 -6.641,-4.602 1.015,-1.347 2.03,-2.694 3.879,-5.148 m -21.473,75.763 c 0.354,10.236 -0.198,10.964 -7.644,10.064 0.598,-7.348 2.796,-10.242 7.644,-10.064 M -91.911,77.559 c 5.61,0.078 10.236,3.4 9.504,6.273 -0.432,1.692 -2.949,3.717 -4.781,4.009 -3.937,0.629 -8.811,-3.414 -8.038,-6.423 0.461,-1.796 2.662,-3.145 3.315,-3.859 m 6.629,-12.365 c 5.669,-0.116 10.615,3.474 9.747,6.407 -0.493,1.668 -3.081,3.496 -4.964,3.805 -3.645,0.599 -8.436,-3.209 -7.874,-6.074 0.359,-1.831 2.442,-3.323 3.091,-4.138 m -8.929,26.131 c 5.847,-0.034 10.699,3.576 9.758,6.517 -0.534,1.668 -3.18,3.471 -5.074,3.725 -3.833,0.512 -8.268,-3.192 -7.698,-6.238 0.334,-1.788 2.409,-3.251 3.014,-4.004 m 53.407,63.654 c -1.356,1.103 -2.576,2.46 -4.091,3.264 -6.541,3.472 -13.138,6.847 -19.803,10.073 -0.89,0.43 -2.29,-0.194 -4.277,-0.426 6.82,-6.783 21.124,-13.844 28.171,-12.911 m -17.472,1.005 v -17.096 c 2.564,0.126 4.684,0.23 7.645,0.375 -2.906,5.993 2.732,14.529 -7.645,16.721 M -31.249,29.939 c -0.031,0.482 -0.061,0.963 -0.091,1.445 -1.854,0 -4.556,0.795 -5.425,-0.13 -5.565,-5.925 -10.727,-12.229 -16.022,-18.408 0.209,-0.486 0.417,-0.972 0.626,-1.458 1.386,0.226 3.28,-0.05 4.078,0.757 5.736,5.808 11.25,11.836 16.834,17.794 m -11.646,7.003 c -5.833,-7.299 -11.321,-14.166 -16.808,-21.033 0.258,-0.485 0.517,-0.971 0.775,-1.456 1.497,0.47 3.506,0.481 4.408,1.485 5.165,5.754 10.072,11.74 15.041,17.669 0.152,0.181 0.02,0.601 0.02,1.176 -0.922,0.579 -1.979,1.244 -3.436,2.159 m -11.514,8.277 c -2.234,1.447 -4.019,2.603 -6.084,3.94 -4.685,-9.728 -9.087,-18.866 -13.488,-28.005 0.266,-0.445 0.532,-0.891 0.798,-1.337 1.306,0.602 3.157,0.843 3.829,1.862 4.981,7.549 9.727,15.253 14.945,23.54 m 26.543,73.461 c -5.172,4.782 -11.123,10.284 -14.811,13.694 0.466,-4.079 1.367,-11.948 2.231,-19.506 4.671,2.158 9.4,4.343 12.58,5.812 M -44.922,42.596 c 1.649,3.573 3.677,6.539 4.281,9.77 0.419,2.236 -0.415,5.736 -2.013,7.001 -1.343,1.064 -5.453,0.585 -6.811,-0.757 -2.327,-2.297 -3.491,-5.788 -5.029,-8.836 -0.098,-0.193 0.722,-0.968 1.221,-1.326 2.454,-1.761 4.943,-3.472 8.351,-5.852 M -68.107,17.292 c 2.93,0.452 5.227,0.108 6.024,1.043 5.601,6.57 10.893,13.405 16.581,20.526 -2.33,1.591 -4.207,2.873 -6.381,4.357 -5.324,-8.507 -10.323,-16.496 -16.224,-25.926 m -6.422,45.348 c -6.156,-7.27 -11.617,-13.554 -16.825,-20.042 -0.797,-0.994 -0.424,-2.928 -0.592,-4.428 1.439,-0.058 3.212,-0.691 4.263,-0.081 7.314,4.249 12.262,10.501 14.192,18.789 0.396,1.699 -0.634,3.729 -1.038,5.762 m 67.983,47.302 c 5.834,-12.045 23.837,-13.563 31.652,-2.882 -10.399,0.947 -21.13,1.924 -31.652,2.882 M -70.035,54.04 c -4.21,-10.663 -8.156,-20.661 -12.196,-30.896 1.675,-0.43 3.183,-0.817 4.996,-1.282 4.675,9.73 9.247,19.246 13.985,29.107 -2.451,1.11 -4.452,2.015 -6.785,3.071 m -5.462,85.118 h 14.349 c -2.831,7.568 3.581,16.942 -6.993,23.196 -2.485,-7.836 -4.739,-14.944 -7.356,-23.196 M -53.708,2.928 c 0.673,1.399 1.409,2.931 2.289,4.764 -1.598,0.867 -2.782,1.689 -4.09,2.188 -8.137,3.105 -16.38,5.948 -24.428,9.267 -4.588,1.892 -7.579,0.63 -10.05,-3.402 11.939,-4.218 23.77,-8.398 36.279,-12.817 m -37.368,135.048 c -0.807,-2.885 -1.566,-5.599 -2.321,-8.297 7.048,-2.238 8.217,-5.049 4.909,-12.195 5.192,-3.311 4.823,-7.615 1.272,-12.387 1.508,-0.567 2.622,-0.987 3.61,-1.359 1.434,11.296 2.826,22.267 4.204,33.119 -2.249,1.266 -4.328,2.436 -6.552,3.689 -1.664,-0.835 -3.505,-1.758 -5.122,-2.57 m 0.343,-74.483 c -3.712,-4.355 -7.806,-8.708 -11.277,-13.511 -1.022,-1.415 -0.282,-4.104 -0.349,-6.209 2.074,-0.042 4.55,-0.844 6.154,0.004 7.364,3.894 11.731,10.539 15.582,17.529 -3.488,0.754 -6.427,1.39 -10.11,2.187 m 28.569,168.482 c -10.582,-0.019 -19.255,-8.691 -19.165,-19.164 0.092,-10.778 8.546,-19.294 19.062,-19.203 10.703,0.092 19.181,8.537 19.205,19.128 0.023,10.577 -8.595,19.258 -19.102,19.239 m 42.01,-197.357 c -6.39,-6.327 -12.702,-12.576 -18.944,-18.756 0.16,-0.025 0.484,-0.147 0.791,-0.113 13.365,1.499 26.688,1.883 39.973,-0.914 1.038,-0.218 2.95,0.932 3.534,1.967 0.976,1.728 1.207,3.877 1.986,6.696 -8.753,-9.92 -23.669,-8.762 -27.34,11.12 M -81.75,200.463 c -0.394,4.956 -3.69,6.836 -7.48,8.073 -16.491,5.381 -33.386,7.555 -50.717,6.328 -3.933,-0.278 -5.676,-2.402 -6.253,-6.378 22.333,3.287 43.51,-1.08 64.45,-8.023 m -31.5,-10.794 c 0.955,-5.194 1.257,-9.589 2.65,-13.605 1.271,-3.663 4.159,-3.687 6.21,-0.601 4.247,6.393 12.758,6.927 16.262,0.169 2.462,-4.75 2.621,-10.73 3.596,-16.199 0.517,-2.9 0.579,-5.88 0.847,-8.824 3.558,4.338 5.938,8.878 8.808,13.083 1.59,2.329 1.492,3.813 -0.294,5.878 -9.777,11.305 -22.407,17.127 -38.079,20.099 m -41.86,0.811 c 31.779,7.706 60.82,4.616 85.059,-20.365 0.049,1.685 0.043,3.554 -0.895,4.474 -4.909,4.818 -9.411,10.521 -15.236,13.851 -18.908,10.808 -39.596,13.077 -60.984,10.384 -5.08,-0.64 -7.664,-3.424 -7.944,-8.344 m 150.941,-37.6 c 10.128,-9.405 21.957,-15.264 35.179,-17.661 6.849,-1.241 14.104,-0.711 21.126,-0.243 2.197,0.147 4.234,2.705 6.344,4.16 -21.819,1.294 -41.145,7.328 -59.072,18.295 -1.188,-1.512 -2.267,-2.885 -3.577,-4.551 m -144.023,51.053 c 0.178,-0.167 0.356,-0.334 0.535,-0.501 11.548,-0.722 23.2,-0.711 34.618,-2.343 15.769,-2.255 30.41,-7.713 41.416,-20.139 1.892,-2.135 3.519,-4.505 5.295,-6.802 4.823,3.178 9.331,6.148 13.605,8.964 -4.655,2.616 -8.923,5.294 -13.436,7.463 -3.762,1.808 -7.873,2.874 -11.722,4.519 -19.815,8.465 -40.442,12.292 -61.963,10.838 -2.815,-0.19 -5.567,-1.31 -8.348,-1.999 M -30.55,192.721 c 6.972,-4.296 13.346,-8.224 20.312,-12.517 3.776,5.22 7.643,10.735 11.703,16.104 1.881,2.487 1.769,4.835 -0.004,7.047 -3.999,4.99 -8.167,9.843 -12.589,15.138 -8.402,-8.138 -15.76,-15.806 -19.422,-25.772 m -107.419,26.345 c 18.079,-0.158 35.678,-2.426 52.783,-8.408 0.64,3.878 1.209,7.322 1.561,9.449 -6.852,4.294 -13.119,8.249 -19.429,12.133 -0.615,0.379 -1.535,0.543 -2.254,0.429 -11.92,-1.9 -23.017,-5.838 -32.661,-13.603 M 9.173,49.546 c -0.73,8.824 -1.3,14.77 -1.688,20.728 -0.27,4.162 -2.631,6.381 -6.334,7.611 -6.639,2.204 -12.806,-0.798 -14.975,-8.364 -3.6,-12.554 -4.595,-25.428 -1.832,-38.317 1.459,-6.803 5.555,-10.45 10.895,-10.642 5.067,-0.182 9.287,2.963 10.943,9.829 1.726,7.149 2.311,14.573 2.991,19.155 m 60.082,106.206 c -15.964,-0.838 -29.772,2.85 -41.109,9.966 -4.779,-4.431 -9.176,-8.506 -13.739,-12.737 13.906,-5.698 28.185,-10.031 43.551,-9.15 1.696,0.097 3.818,1 4.878,2.258 2.25,2.67 3.93,5.821 6.419,9.663 m -5.229,34.552 c -13.969,28.94 -64.574,67.086 -90.311,67.461 1.433,-0.687 2.592,-1.239 3.748,-1.797 20.964,-10.119 40.752,-22.021 57.161,-38.797 6.282,-6.423 11.928,-13.407 9.857,-22.713 6.794,-1.444 13.185,-2.802 19.545,-4.154 M 29.382,169.376 c 8.473,-7.146 28.359,-12.225 39.03,-10.04 3.782,0.775 7.138,6.035 6.331,9.923 -2.576,12.406 -15.916,22.299 -28.442,20.891 -1.756,-0.197 -4.064,-0.961 -4.975,-2.262 -4.152,-5.932 -7.896,-12.15 -11.944,-18.512 m -43.94,51.37 c -7.405,6.258 -15.206,11.956 -24.675,14.778 -4.315,1.286 -8.842,1.937 -12.779,-2.412 6.941,-4.744 11.647,-10.514 12.092,-19.037 0.45,-8.618 -3.516,-15.055 -9.73,-21.298 4.87,-0.975 9.65,-1.758 14.182,-1.02 1.587,0.258 2.56,4.262 3.82,6.553 0.701,1.273 1.259,2.662 2.148,3.788 4.793,6.076 9.67,12.086 14.942,18.648 m -26.541,-71.3 c -0.537,-0.098 -1.074,-0.197 -1.611,-0.295 0.587,-2.631 0.432,-5.813 1.899,-7.791 4.479,-6.036 8.75,-12.702 14.6,-17.156 16.956,-12.913 36.831,-14.947 57.31,-12.347 2.779,0.353 5.214,3.407 7.809,5.211 -40.847,4.268 -53.468,9.277 -80.007,32.378 m 27.393,27.88 c -1.925,3.154 -4.405,4.15 -7.973,2.322 -2.804,-1.438 -5.756,-2.586 -8.643,-3.863 -0.352,0.66 -0.705,1.321 -1.057,1.982 3.147,1.927 6.295,3.854 9.566,5.856 -5.271,4.946 -8.554,-3.594 -14.123,-1.108 2.278,1.904 4.089,3.416 5.899,4.929 -13.316,-0.793 -22.942,-8.743 -33.364,-16.078 5.735,-3.577 11.589,-6.187 17.249,-9.165 3.367,-1.771 6.429,-4.122 10.64,-6.872 h 27.445 c -4.7,0.718 -8.089,2.46 -8.618,7.335 h -6.985 c -0.094,0.612 -0.189,1.224 -0.283,1.836 5.278,1.092 10.557,2.184 15.82,3.272 -0.793,5.37 -1.392,5.999 -6.281,5.263 -2.517,-0.38 -4.931,-1.409 -7.42,-2.036 -1.064,-0.269 -2.199,-0.26 -3.302,-0.378 -0.202,0.658 -0.404,1.315 -0.606,1.973 3.964,1.558 7.928,3.117 12.036,4.732 m -22.772,-25.587 c -0.277,-0.608 -0.554,-1.216 -0.831,-1.824 2.473,-2.183 4.821,-4.528 7.437,-6.522 19.626,-14.965 42.007,-21.34 66.486,-22.041 7.649,-0.219 10.42,4.447 14.507,9.536 -20.717,-1.907 -38.219,4.376 -53.569,16.479 -4.165,3.284 -7.912,4.679 -12.97,4.451 -7.007,-0.316 -14.039,-0.079 -21.06,-0.079 M -3.945,12.548 c -3.001,0.319 -6.043,0.984 -9.065,0.9 -8.877,-0.248 -17.764,-0.57 -26.611,-1.304 -5.458,-0.453 -11.005,-7.183 -11.322,-12.684 -0.269,-4.679 -0.685,-9.349 -1.062,-14.373 12.708,-1.264 26.143,-2.599 39.386,-3.916 -0.476,0.825 -1.118,1.936 -1.906,3.3 7.416,0.401 7.416,0.401 5.145,4.542 5.807,2.483 5.819,2.522 1.972,5.693 1.155,1.423 3.14,2.755 3.304,4.283 0.458,4.25 0.159,8.582 0.159,13.559 M -102.62,-7.05 c 3.923,-1.966 7.216,-4.06 10.805,-5.285 3.327,-1.135 6.958,-1.431 10.478,-1.935 5.753,-0.824 11.506,-1.866 17.293,-2.158 5.032,-0.254 9.262,4.134 10.21,9.306 0.953,5.198 -2.146,7.38 -6.293,8.799 -11.009,3.766 -22.03,7.502 -33.071,11.174 -0.99,0.329 -2.185,0.251 -3.251,0.108 -8.312,-1.11 -16.619,-2.265 -24.921,-3.443 -4.051,-0.575 -8.089,-1.23 -12.849,-1.957 1.463,-2.177 2.306,-3.429 2.863,-4.259 3.006,0.901 5.458,1.635 7.909,2.369 0.197,-0.54 0.394,-1.081 0.591,-1.622 -1.396,-1.074 -2.793,-2.148 -4.189,-3.222 l 0.578,-1.59 c 3.534,0.937 7.068,1.874 10.603,2.811 0.18,-0.522 0.36,-1.044 0.54,-1.566 -1.899,-1.235 -3.798,-2.471 -6.099,-3.968 5.493,-4.032 8.447,5.29 13.693,1.842 -1.046,-1.233 -1.949,-2.297 -2.852,-3.362 0.176,-0.358 0.353,-0.716 0.53,-1.074 3.731,1.399 7.462,2.799 11.193,4.198 0.229,-0.534 0.459,-1.069 0.688,-1.603 -1.271,-1.018 -2.542,-2.036 -4.449,-3.563 M -1.853,162.747 c 0.85,-0.11 1.7,-0.219 2.551,-0.329 4.798,7.385 9.509,14.829 14.417,22.14 6.665,9.928 4.458,18.914 -2.497,27.582 -11.154,13.904 -25.308,23.982 -40.994,32.042 -13.538,6.957 -25.975,3.897 -36.38,-9.28 3.943,0.245 8.3,-0.807 10.373,0.906 5.064,4.184 10.292,4.879 15.846,2.86 18.234,-6.63 32.352,-18.61 43.224,-34.525 2.141,-3.133 1.918,-6.229 -0.469,-9.397 -4.272,-5.667 -8.28,-11.534 -12.377,-17.289 2.105,-4.912 4.205,-9.811 6.306,-14.71 M -75.956,135.49 c -2.907,-16.553 -6.077,-33.201 -1.935,-50.143 0.702,-2.868 2.202,-5.835 4.142,-8.048 4.357,-4.968 9.415,-3.825 12.476,1.874 4.726,8.797 9.928,17.336 14.785,26.065 1.061,1.907 2.178,4.169 2.126,6.238 -0.164,6.432 -0.869,12.85 -1.383,19.272 -0.392,4.897 -2.877,6.395 -7.356,4.615 -0.626,-3.252 -0.763,-6.588 -2.005,-9.444 -0.749,-1.721 -3.217,-3.737 -4.908,-3.734 -1.981,0.004 -4.182,1.811 -5.848,3.321 -0.927,0.841 -1.078,2.644 -1.376,4.055 -1.373,6.52 -1.348,6.525 -8.718,5.929 m -73.128,-1.587 c -5.611,-5.062 -10.999,-11.259 -13.81,-19.279 -3.562,-10.161 -0.754,-19.364 8.522,-24.754 4.294,-2.496 9.617,-4.014 14.592,-4.386 12.193,-0.912 23.196,3.825 33.763,9.257 3.494,1.796 6.359,4.814 10.077,7.715 -6.48,3.45 -6.334,7.521 -3.852,11.389 -1.769,3.05 -3.244,5.591 -4.86,8.376 -0.865,0 -2.103,-0.304 -3.103,0.053 -3.903,1.396 -6.012,-0.574 -8.993,-2.991 -5.563,-4.509 -12.072,-7.888 -18.355,-11.439 -1.264,-0.715 -3.278,-0.104 -4.946,-0.104 l -0.138,1.256 c 4.175,1.877 8.571,3.388 12.464,5.734 3.987,2.403 7.482,5.623 11.191,8.486 -4.814,0.227 -8.928,-1.492 -12.809,-1.069 -4.735,0.515 -6.96,4.597 -6.828,8.496 -4.459,1.125 -8.213,2.073 -12.915,3.26 m 46.015,35.269 c -1.892,0.328 -3.974,0.107 -5.254,1.016 -4.539,3.224 -9.207,6.151 -14.002,8.981 -2.372,1.4 -2.823,5.905 -4.409,8.863 -0.641,1.197 -2.124,2.977 -2.994,2.854 -7.801,-1.097 -15.625,-2.259 -23.257,-4.148 -1.668,-0.413 -3.765,-3.864 -3.667,-5.816 0.435,-8.679 0.731,-17.534 2.778,-25.91 1.558,-6.377 5.284,-12.367 8.796,-18.068 2.053,-3.331 5.88,-2.758 9.209,-1.04 4.051,2.091 7.265,7.641 6.848,11.502 -0.436,4.039 -3.701,3.268 -6.189,3.9 -0.22,0.056 -0.339,0.509 -1.228,1.948 2.287,0.243 4.441,1.147 5.714,0.448 1.904,-1.045 4.041,-2.991 4.565,-4.958 1.256,-4.719 -0.631,-9.133 -4.066,-12.33 -2.927,-2.724 -2.779,-5.357 -1.575,-9.596 2.012,2.516 3.345,4.475 4.977,6.141 1.548,1.581 2.73,4.618 6.173,2.483 -2.668,-3.373 -5.155,-6.518 -7.642,-9.664 1.776,-0.527 2.944,-0.485 3.893,-0.007 4.778,2.407 9.379,2.687 14.398,0.281 4.105,-1.967 7.867,-0.297 10.998,2.831 3.181,3.176 5.068,6.533 3.185,11.281 -1.049,2.648 -1.685,5.612 -1.736,8.448 -0.033,1.785 1.361,3.595 2.115,5.394 0.561,-0.197 1.123,-0.394 1.684,-0.59 -0.235,-1.968 -0.998,-4.062 -0.566,-5.87 0.488,-2.039 2.052,-3.821 3.148,-5.715 1.434,1.722 3.048,3.333 4.219,5.219 0.511,0.824 0.179,2.215 0.118,3.342 -0.245,4.493 -0.17,9.045 -0.919,13.455 -0.63,3.709 -1.507,7.762 -3.588,10.748 -3.047,4.372 -8.799,3.022 -10.674,-1.967 -0.387,-1.029 -0.645,-2.106 -1.052,-3.456 M 3.125,159.737 c 5.248,-5.396 6.908,-5.86 11.835,-0.196 7.715,8.871 15.491,17.845 21.902,27.651 7.29,11.149 6.566,16.135 -2.904,25.763 -7.217,7.338 -15.201,14.081 -23.544,20.12 -15.12,10.944 -31.384,20.033 -49.228,25.858 -19.527,6.374 -49.246,-4.993 -59.878,-22.546 -1.585,-2.616 -0.784,-4.417 1.601,-5.534 4.088,-1.913 8.222,-3.828 12.521,-5.136 1.449,-0.44 3.798,0.528 5.156,1.592 8.504,6.67 16.615,13.862 25.325,20.24 5.182,3.794 11.495,5.717 17.952,3.2 22.037,-8.592 40.841,-21.605 54.404,-41.323 5.049,-7.339 6.088,-15.299 1.223,-23.291 C 14.14,177.346 8.653,168.641 3.125,159.737 M -41.787,40.105 c 3.242,-1.801 7.047,-4.216 11.126,-6.005 1.316,-0.576 3.784,-0.04 4.983,0.917 3.784,3.022 5.452,6.895 5.754,12.107 0.49,8.462 1.453,17.133 3.953,25.177 2.68,8.625 10.909,11.426 19.358,8.272 0.86,-0.321 1.709,-0.667 3.331,-1.302 -0.959,5.68 -1.71,10.756 -2.749,15.772 -0.219,1.057 -1.396,2.004 -2.3,2.814 -3.799,3.405 -8.097,6.36 -11.412,10.176 -7.127,8.203 -17.179,9.901 -25.881,3.431 -2.946,-2.192 -5.674,-4.871 -7.923,-7.775 -10.897,-14.068 -16.623,-30.836 -24.492,-46.646 3.533,-1.823 6.652,-3.432 9.546,-4.925 2.337,3.176 4.233,6.421 6.776,9.035 3.013,3.095 6.887,3.289 10.757,1.363 3.626,-1.806 4.598,-5.155 3.796,-8.624 -0.994,-4.305 -2.78,-8.427 -4.623,-13.787 m -36.667,-0.79 c -13.347,-7.461 -14.118,-7.471 -17.927,0.451 -3.598,-0.995 -7.11,-0.884 -9.197,2.927 -2.194,4.004 -0.623,7.512 1.863,10.76 1.717,2.244 3.522,4.422 5.356,6.715 -13.132,5.858 -41.956,10.311 -55.136,9.184 -16.457,-1.408 -26.637,-10.573 -32.469,-25.32 -3.452,-8.729 -1.678,-16.466 5.593,-22.276 10.385,-8.297 22.227,-13.829 35.292,-16.516 1.422,-0.292 3.726,-0.225 4.45,0.647 4.549,5.481 10.892,5.949 17.159,6.662 6.912,0.787 13.908,1.038 20.744,2.235 4.058,0.71 7.877,2.792 12.903,4.668 -19.315,19.865 -41.457,25.988 -67.097,21.798 0.009,0.797 0.017,1.594 0.026,2.39 3.398,0.672 6.773,1.751 10.199,1.951 22.957,1.343 42.395,-6.582 59.116,-23.621 3.216,6.112 6.17,11.729 9.125,17.345 m -72.039,98.563 c -7.042,12.078 -9.842,25.442 -9.774,39.411 0.048,10.034 1.724,19.701 9.043,27.445 0.611,0.646 0.969,1.684 1.112,2.592 0.976,6.188 4.473,10.997 9.466,14.124 6.663,4.173 13.557,8.837 21,10.703 11.091,2.78 19.978,7.565 28.296,15.6 6.967,6.73 16.511,10.794 23.758,15.316 -41.135,2.053 -102.401,-22.537 -132.715,-83.35 -27.455,-55.077 -15.24,-116.49 9.675,-149.458 0,2.542 -0.332,5.78 0.057,8.929 1.729,13.985 14.742,28.974 28.588,31.696 7.672,1.509 15.877,2.31 23.561,1.299 13.097,-1.723 25.993,-5.028 38.93,-7.872 5.151,-1.132 6.885,-0.186 7.784,5.204 0.232,1.389 0.518,2.769 0.769,4.1 -8.426,3.445 -9.316,6.01 -5.592,13.762 -1.797,1.947 -3.408,3.692 -5.237,5.675 -1.203,-0.576 -2.797,-1.34 -4.393,-2.101 -9.551,-4.553 -19.351,-8.368 -30.063,-8.883 -11.797,-0.567 -21.879,3.088 -28.249,13.552 -6.139,10.084 -2.96,19.744 2.96,28.664 3.106,4.68 7.079,8.784 11.024,13.592 M -181.294,17.427 C -141.347,-35.014 -56.695,-58.982 13.701,-15.728 85.704,28.514 97.388,112.184 76.918,161.803 71.775,154.03 67.008,145.702 61.164,138.215 46.829,119.853 32.547,101.179 7.677,95.998 8.862,85.914 10.308,75.839 11.172,65.714 12.452,50.701 13.169,35.666 9.84,20.757 8.955,16.794 7.334,13.404 9.837,8.601 11.603,5.214 9.162,-0.747 7.737,-5.288 6.7,-8.59 4.007,-11.332 2.486,-14.53 c -3.721,-7.817 -7.514,-10.03 -15.781,-8.539 -3.021,0.545 -5.963,1.652 -8.997,1.988 -6.556,0.726 -13.169,1.717 -19.719,1.481 -6.57,-0.237 -13.029,4.133 -19.719,0.201 -1.452,-0.854 -3.827,-0.407 -5.731,-0.18 -16.195,1.924 -32.504,3.251 -48.519,6.175 -9.91,1.809 -20.553,3.928 -26.27,14.29 -0.334,0.604 -1.638,0.702 -2.509,0.977 -5.844,1.847 -11.893,3.214 -17.487,5.635 -6.584,2.85 -12.774,6.609 -19.048,9.929 M -64.909,266.789 C 20.234,266.518 89.087,197.671 89.013,112.881 88.939,27.681 19.559,-41.629 -65.24,-41.217 c -85.496,0.415 -154.238,69.392 -153.893,154.42 0.344,85.075 69.41,153.856 154.224,153.586" /></g><g
           transform="translate(583.8537,266.671)"
           id="g44"><path
             id="path46"
             style="fill:#231f20;fill-opacity:1;fill-rule:nonzero;stroke:none"
             d="m 0,0 c -5.599,-5.207 -10.952,-10.185 -16.34,-15.195 5.456,-5.027 10.472,-4.253 16.305,1.911 C 4.709,-8.271 4.844,-4.89 0,0 m -11.254,-21.89 c -0.794,0.284 -2.741,0.677 -4.37,1.62 -5.358,3.102 -5.495,5.212 -0.947,9.361 4.419,4.032 8.905,8.001 13.151,12.211 2.763,2.74 5.314,2.564 7.222,-0.406 1.489,-2.317 2.951,-5.23 2.897,-7.846 -0.14,-6.827 -9.964,-15.177 -17.953,-14.94" /></g><g
           transform="translate(572.3854,272.3608)"
           id="g48"><path
             id="path50"
             style="fill:#231f20;fill-opacity:1;fill-rule:nonzero;stroke:none"
             d="M 0,0 C -1.204,0.746 -2.873,2.64 -4.525,2.626 -8.053,2.594 -10.586,0.381 -10.811,-3.381 -10.99,-6.375 -9.002,-7.9 -6.19,-7.577 -2.617,-7.166 -0.403,-5.043 0,0 m -6.837,-10.782 c -4.349,0.095 -7.3,3.077 -7.266,7.343 0.04,5.065 4.541,9.375 9.796,9.38 4.491,0.004 7.784,-3.294 7.592,-7.604 -0.219,-4.95 -4.972,-9.232 -10.122,-9.119" /></g><g
           transform="translate(250.1273,581.6113)"
           id="g52"><path
             id="path54"
             style="fill:#231f20;fill-opacity:1;fill-rule:nonzero;stroke:none"
             d="m 0,0 c -3.738,0.042 -6.446,-2.589 -6.513,-6.328 -0.065,-3.612 2.732,-6.525 6.318,-6.579 3.556,-0.053 6.494,2.819 6.544,6.396 C 6.4,-2.819 3.692,-0.042 0,0 m -0.172,-16.035 c -5.667,0.078 -9.774,4.246 -9.673,9.816 0.099,5.412 4.644,9.743 10.049,9.576 5.38,-0.165 9.642,-4.764 9.456,-10.202 -0.18,-5.258 -4.467,-9.264 -9.832,-9.19" /></g><g
           transform="translate(284.0321,314.4235)"
           id="g56"><path
             id="path58"
             style="fill:#231f20;fill-opacity:1;fill-rule:nonzero;stroke:none"
             d="M 0,0 C -2.948,1.76 -4.701,3.627 -6.328,3.522 -7.68,3.435 -8.883,1.031 -10.153,-0.347 -8.664,-1.688 -7.301,-3.851 -5.645,-4.104 -4.37,-4.3 -2.727,-2.096 0,0 m 1.479,-0.026 c 0.105,-3.966 -3.153,-7.469 -7.166,-7.702 -3.982,-0.231 -7.529,2.971 -7.751,6.998 -0.237,4.31 3.047,7.886 7.294,7.941 3.955,0.052 7.519,-3.331 7.623,-7.237" /></g><g
           transform="translate(660.6555,384.0414)"
           id="g60"><path
             id="path62"
             style="fill:#231f20;fill-opacity:1;fill-rule:nonzero;stroke:none"
             d="M 0,0 C -0.555,-0.098 -1.11,-0.196 -1.665,-0.294 -4.724,-4.915 -4.431,-6.08 1.68,-8.51 1.013,-5.13 0.506,-2.565 0,0 m -1.936,-11.305 c -6.015,2.989 -6.043,7.865 -3.128,13.539 -1.482,-0.936 -2.175,-1.819 -3.014,-2.529 -4.003,-3.387 -4.465,-8.455 -1.079,-12.392 2.789,-3.243 4.641,-2.984 7.221,1.382 m -7.69,27.807 C -8.378,14.282 -7.22,12.005 -5.854,9.86 -4.731,8.097 -3.7,5.962 -2.045,4.906 5.468,0.112 6.779,-5.705 1.507,-12.987 c -2.216,-3.061 -4.611,-5.993 -6.691,-8.68 -2.048,2.227 -3.803,3.851 -5.205,5.739 -1.413,1.904 -2.87,3.937 -3.605,6.147 -1.391,4.186 0.786,9.893 -6.644,11.378 0.463,0.46 0.927,0.92 1.391,1.38 1.346,-0.238 2.731,-0.349 4.033,-0.738 4.953,-1.479 7.196,0.26 6.365,5.439 -0.433,2.7 -1.663,5.273 -2.534,7.903 0.586,0.307 1.171,0.614 1.757,0.921" /></g><g
           transform="translate(394.8274,218.6021)"
           id="g64"><path
             id="path66"
             style="fill:#231f20;fill-opacity:1;fill-rule:nonzero;stroke:none"
             d="M 0,0 C -1.788,1.287 -2.884,2.684 -3.861,2.606 -4.798,2.531 -6.277,0.932 -6.287,-0.01 -6.297,-0.884 -4.742,-2.382 -3.76,-2.483 -2.826,-2.58 -1.742,-1.226 0,0 m 2.265,-0.132 c -0.087,-3.264 -3.074,-6.047 -6.361,-5.925 -3.278,0.122 -6.145,3.17 -5.739,6.445 0.424,3.424 2.419,5.569 6.027,5.66 3.299,0.083 6.159,-2.93 6.073,-6.18" /></g><g
           transform="translate(276.4057,531.388)"
           id="g68"><path
             id="path70"
             style="fill:#231f20;fill-opacity:1;fill-rule:nonzero;stroke:none"
             d="m 0,0 c 1.939,-3.043 4.038,-4.894 3.932,-6.609 -0.09,-1.467 -2.984,-4.093 -4.143,-3.849 -1.709,0.359 -3.885,2.673 -4.147,4.414 C -4.567,-4.661 -2.206,-2.891 0,0" /></g><g
           transform="translate(525.668,237.6913)"
           id="g72"><path
             id="path74"
             style="fill:#231f20;fill-opacity:1;fill-rule:nonzero;stroke:none"
             d="M 0,0 C -2.605,1.575 -4.211,3.32 -5.518,3.119 -6.815,2.92 -8.746,0.707 -8.675,-0.522 -8.603,-1.749 -6.42,-3.726 -5.114,-3.765 -3.788,-3.805 -2.402,-1.881 0,0 m 1.595,-0.424 c -0.097,-3.9 -3.368,-6.975 -7.243,-6.811 -3.941,0.168 -6.929,3.433 -6.702,7.322 0.214,3.68 3.352,6.672 6.97,6.646 3.814,-0.028 7.069,-3.368 6.975,-7.157" /></g><g
           transform="translate(462.8766,613.829)"
           id="g76"><path
             id="path78"
             style="fill:#231f20;fill-opacity:1;fill-rule:nonzero;stroke:none"
             d="M 0,0 C -0.403,3.044 -0.663,5.008 -0.99,7.479 -3.505,6.46 -5.454,5.67 -8.629,4.383 -5.208,2.645 -3.04,1.544 0,0 M 5.701,45.271 C 0.951,44.706 0.574,43.45 3.195,36.904 c 3.734,1.475 3.734,1.475 2.506,8.367 m -8.006,-2.35 c -2.595,-3.266 -4.809,-6.052 -7.627,-9.599 9.605,1.326 9.904,1.707 7.627,9.599 m -9.121,-31.55 c -0.151,-0.651 -0.302,-1.303 -0.453,-1.954 1.361,-0.338 2.872,-1.239 4.06,-0.923 8.336,2.218 9.069,2.894 8.579,7.238 -4.135,-1.48 -8.16,-2.92 -12.186,-4.361 M 9.37,46.731 c 0.221,-3.102 0.38,-5.322 0.577,-8.086 4.161,1.353 7.648,2.486 11.134,3.619 -0.01,0.437 -0.019,0.875 -0.029,1.313 -3.609,0.975 -7.218,1.949 -11.682,3.154 M -12.438,14.984 c 11.8,2.288 15.154,4.297 15.873,9.361 -14.231,-3.538 -16.239,-4.678 -15.873,-9.361 M 24.065,29.238 C 16.61,32.098 9.845,28.818 6.402,21.162 2.992,13.579 5.095,4.479 10.971,1.392 7.287,11.998 9.35,23.613 24.065,29.238 M 30.2,29.046 c -0.234,8.828 -3.639,11.418 -11.287,9.048 -8.631,-2.674 -17.22,-5.5 -25.922,-7.919 -3.804,-1.058 -5.289,-3.011 -4.767,-7.425 7.175,2.541 14.442,4.104 20.649,7.568 7.718,4.308 14.411,4.981 21.327,-1.272 m -3.209,-3.9 C 20.469,25.29 15.808,21.628 13.775,16.202 11.666,10.573 12.523,3.455 15.942,0.815 c 0.861,-0.664 2.746,-0.766 3.791,-0.299 5.312,2.375 11.708,14.308 10.481,20.097 -0.421,1.986 -2.535,3.613 -3.223,4.533 M -16.08,18.598 c 0.519,7.247 2.004,15.115 7.294,21.778 6.783,8.542 16.604,11.186 27.459,7.346 C 28.733,44.163 34.722,35.796 34.414,25.126 34.197,17.602 32.644,10.36 28.21,4.009 24.681,-1.045 19.965,-4.269 13.791,-4.815 5.634,-5.536 -2.047,-3.73 -8.74,1.048 c -5.601,3.997 -7.474,9.935 -7.34,17.55" /></g><g
           transform="translate(331.4421,608.2787)"
           id="g80"><path
             id="path82"
             style="fill:#231f20;fill-opacity:1;fill-rule:nonzero;stroke:none"
             d="m 0,0 c -0.058,3.688 -2.842,6.366 -6.56,6.308 -3.776,-0.059 -6.384,-2.735 -6.34,-6.506 0.042,-3.673 2.866,-6.416 6.534,-6.347 C -2.707,-6.477 0.057,-3.635 0,0 m -6.405,-9.722 c -5.611,-0.02 -9.77,4.117 -9.772,9.72 -0.002,5.398 4.5,9.809 9.905,9.707 5.167,-0.099 9.504,-4.431 9.61,-9.601 0.112,-5.439 -4.219,-9.806 -9.743,-9.826" /></g><g
           transform="translate(239.5846,477.5042)"
           id="g84"><path
             id="path86"
             style="fill:#231f20;fill-opacity:1;fill-rule:nonzero;stroke:none"
             d="M 0,0 C 0.747,-0.046 1.494,-0.091 2.241,-0.137 3.674,1.629 6.28,3.437 6.221,5.151 6.157,6.974 3.869,9.686 2.012,10.259 -0.969,11.179 -3.584,9.058 -3.295,5.823 -3.114,3.8 -1.159,1.935 0,0 M 1.225,13.796 C 5.87,13.923 9.623,10.353 9.737,5.7 9.847,1.196 6.033,-2.718 1.508,-2.745 -2.84,-2.771 -6.543,0.773 -6.75,5.159 c -0.215,4.577 3.418,8.513 7.975,8.637" /></g><g
           transform="translate(606.5682,307.0585)"
           id="g88"><path
             id="path90"
             style="fill:#231f20;fill-opacity:1;fill-rule:nonzero;stroke:none"
             d="m 0,0 c 4.539,-0.06 8.114,3.296 8.264,7.756 0.15,4.465 -3.259,8.1 -7.751,8.268 C -4.221,16.2 -8.031,12.643 -8.037,8.04 -8.042,3.631 -4.472,0.059 0,0 M 11.458,8.235 C 11.559,1.947 6.601,-3.259 0.352,-3.425 -5.766,-3.588 -11.107,1.591 -11.222,7.798 -11.339,14.09 -6.344,19.282 -0.089,19.369 6.274,19.458 11.356,14.558 11.458,8.235" /></g><g
           transform="translate(652.7995,445.4722)"
           id="g92"><path
             id="path94"
             style="fill:#231f20;fill-opacity:1;fill-rule:nonzero;stroke:none"
             d="M 0,0 C 0.613,-0.006 1.226,-0.012 1.839,-0.018 2.752,1.593 4.551,3.328 4.349,4.785 4.109,6.521 2.152,8.019 0.939,9.62 -0.272,8.179 -2.357,6.798 -2.461,5.281 -2.578,3.585 -0.898,1.766 0,0 M 7.746,4.921 C 7.646,0.566 4.498,-3.01 0.817,-2.948 c -3.676,0.061 -6.732,3.759 -6.683,8.086 0.05,4.469 2.984,7.739 6.922,7.714 3.798,-0.023 6.79,-3.57 6.69,-7.931" /></g><g
           transform="translate(372.6899,468.4554)"
           id="g96"><path
             id="path98"
             style="fill:#231f20;fill-opacity:1;fill-rule:nonzero;stroke:none"
             d="m 0,0 c 3.362,-1.668 5.619,-2.856 7.943,-3.892 0.594,-0.265 1.903,-0.271 2.018,-0.013 0.309,0.699 0.339,1.652 0.144,2.419 C 9.552,0.696 8.831,2.835 7.837,6.11 5.55,4.327 2.838,2.212 0,0 m 16.216,-4.148 c -1.996,-1.359 -3.854,-3.073 -6.047,-3.919 -1.021,-0.394 -2.681,0.926 -4.071,1.411 -1.38,0.482 -2.931,0.652 -4.147,1.388 -1.796,1.086 -3.776,2.289 -4.842,3.972 -0.492,0.778 0.708,3.032 1.648,4.214 C 0.043,4.535 1.659,6.017 3.416,7.096 5.231,8.21 8.247,10 9.213,9.322 11.317,7.845 15.749,6.51 12.62,1.939 c -0.462,-0.676 1.574,-3.061 2.454,-4.656 0.381,-0.477 0.761,-0.954 1.142,-1.431" /></g><g
           transform="translate(351.0663,473.932)"
           id="g100"><path
             id="path102"
             style="fill:#231f20;fill-opacity:1;fill-rule:nonzero;stroke:none"
             d="M 0,0 C 4.18,1 8.226,2.167 5.567,8.022 3.475,5.007 1.737,2.504 0,0 M 0.886,-6.822 C -3.75,-4.07 -3.919,-0.74 -1.865,2.94 -0.614,5.183 1.281,7.076 2.459,9.348 3.514,11.382 3.984,13.719 5.12,17.157 8.617,12.716 10.974,8.096 9.612,3.995 8.292,0.023 4.123,-3.003 0.886,-6.822" /></g><g
           transform="translate(345.5885,474.7465)"
           id="g104"><path
             id="path106"
             style="fill:#231f20;fill-opacity:1;fill-rule:nonzero;stroke:none"
             d="M 0,0 C -2.876,4.805 0.454,11.649 6.698,13.217 4.34,8.564 2.234,4.409 0,0" /></g><g
           transform="translate(548.4123,479.525)"
           id="g108"><path
             id="path110"
             style="fill:#231f20;fill-opacity:1;fill-rule:nonzero;stroke:none"
             d="M 0,0 C 3.789,0.239 6.282,2.033 6.427,5.911 6.566,9.626 4.735,12.116 0.775,12.44 -2.895,12.741 -6.147,9.941 -6.008,6.42 -5.859,2.672 -3.698,0.541 0,0 M 0.5,15.877 C 5.628,15.737 9.948,11.199 9.831,6.076 9.712,0.885 5.278,-3.343 0.067,-3.234 c -5.134,0.107 -9.447,4.627 -9.31,9.757 0.138,5.2 4.61,9.494 9.743,9.354" /></g><g
           transform="translate(499.1046,360.5693)"
           id="g112"><path
             id="path114"
             style="fill:#231f20;fill-opacity:1;fill-rule:nonzero;stroke:none"
             d="m 0,0 c -1.311,5.221 -2.05,10.035 -3.771,14.467 -1.587,4.089 -4.695,4.245 -6.624,0.4 -4.98,-9.921 -5.263,-20.222 -0.719,-30.369 1.751,-3.912 5.021,-3.96 6.662,0.021 C -2.402,-10.509 -1.413,-5.1 0,0 M 3.491,-0.225 C 1.659,-6.182 0.508,-12.25 -2.061,-17.642 c -2.751,-5.774 -8.186,-5.463 -11.627,-0.002 -5.227,8.295 -4.754,26.886 0.885,34.847 3.551,5.014 8.816,5.098 11.405,-0.543 C 0.958,11.525 1.84,5.714 3.491,-0.225" /></g><g
           transform="translate(567.347,275.1072)"
           id="g116"><path
             id="path118"
             style="fill:#231f20;fill-opacity:1;fill-rule:nonzero;stroke:none"
             d="M 0,0 C 1.491,-2.602 3.06,-4.122 2.801,-5.2 2.481,-6.526 0.707,-8.236 -0.576,-8.359 -1.585,-8.456 -3.778,-6.32 -3.695,-5.321 -3.575,-3.866 -1.883,-2.542 0,0" /></g><g
           transform="translate(609.5502,314.3592)"
           id="g120"><path
             id="path122"
             style="fill:#231f20;fill-opacity:1;fill-rule:nonzero;stroke:none"
             d="M 0,0 C 0.415,0.698 0.831,1.397 1.246,2.095 0.037,2.516 -1.256,3.413 -2.359,3.222 -3.457,3.032 -4.365,1.747 -5.356,0.942 -4.522,-0.002 -3.834,-1.4 -2.803,-1.731 -2.124,-1.949 -0.951,-0.631 0,0 m -2.932,-5.267 c -3.549,0.411 -5.812,2.386 -5.814,5.937 -10e-4,3.499 2.095,5.739 5.726,5.988 3.292,0.226 6.409,-2.851 6.137,-6.125 -0.296,-3.577 -2.511,-5.426 -6.049,-5.8" /></g><g
           transform="translate(249.3486,732.5416)"
           id="g124"><path
             id="path126"
             style="fill:#ffffff;fill-opacity:1;fill-rule:nonzero;stroke:none"
             d="M 0,0 5.536,3.226 37.82,-52.166 32.284,-55.393 Z" /></g><g
           transform="translate(302.2212,743.6329)"
           id="g128"><path
             id="path130"
             style="fill:#ffffff;fill-opacity:1;fill-rule:nonzero;stroke:none"
             d="m 0,0 -1.44,-25.636 20.306,8.252 z m -4.379,12.924 51.837,-48.139 -6.411,-2.606 -17.284,15.747 -25.587,-10.399 -1.311,-23.303 -6.622,-2.691 3.924,70.8 z" /></g><g
           transform="translate(346.604,733.8668)"
           id="g132"><path
             id="path134"
             style="fill:#ffffff;fill-opacity:1;fill-rule:nonzero;stroke:none"
             d="M 0,0 23.35,5.425 24.553,0.246 1.203,-5.179 Z" /></g><g
           transform="translate(442.5898,772.549)"
           id="g136"><path
             id="path138"
             style="fill:#ffffff;fill-opacity:1;fill-rule:nonzero;stroke:none"
             d="m 0,0 -4.71,-4.965 c -3.757,3.32 -7.81,5.774 -12.156,7.361 -4.347,1.586 -8.538,2.272 -12.571,2.058 -5.02,-0.268 -9.734,-1.757 -14.143,-4.465 -4.41,-2.709 -7.75,-6.24 -10.02,-10.594 -2.27,-4.355 -3.279,-8.883 -3.028,-13.584 0.256,-4.816 1.791,-9.325 4.606,-13.525 2.813,-4.2 6.564,-7.418 11.251,-9.657 4.688,-2.237 9.745,-3.212 15.171,-2.922 6.586,0.351 12.058,2.505 16.415,6.462 4.357,3.957 6.799,8.917 7.325,14.881 l -20.412,-1.088 -0.33,6.18 27.594,1.472 c 0.469,-9.899 -2.05,-17.911 -7.556,-24.038 -5.508,-6.128 -13.136,-9.452 -22.885,-9.972 -11.839,-0.631 -21.426,2.901 -28.761,10.6 -5.642,5.926 -8.68,12.965 -9.115,21.119 -0.323,6.064 0.9,11.789 3.667,17.174 2.769,5.385 6.729,9.692 11.882,12.92 5.153,3.229 11.08,5.022 17.783,5.379 5.425,0.29 10.584,-0.417 15.476,-2.121 C -9.625,6.973 -4.785,4.08 0,0" /></g><g
           transform="translate(474.2246,773.3849)"
           id="g140"><path
             id="path142"
             style="fill:#ffffff;fill-opacity:1;fill-rule:nonzero;stroke:none"
             d="m 0,0 -3.505,-21.509 10.887,-1.862 c 4.222,-0.689 7.411,-0.796 9.567,-0.323 2.155,0.473 3.946,1.499 5.367,3.078 1.422,1.579 2.311,3.458 2.666,5.638 0.346,2.123 0.085,4.145 -0.781,6.067 -0.866,1.922 -2.172,3.408 -3.918,4.458 -1.745,1.05 -4.787,1.929 -9.124,2.635 z M -5.315,7.225 7.289,5.172 c 7.026,-1.146 11.74,-2.208 14.142,-3.189 3.616,-1.474 6.37,-3.816 8.26,-7.027 1.891,-3.212 2.5,-6.885 1.827,-11.02 -0.562,-3.447 -1.867,-6.344 -3.912,-8.692 -2.046,-2.349 -4.683,-3.947 -7.912,-4.791 -3.229,-0.845 -7.499,-0.849 -12.808,-0.013 l 17.969,-33.089 -7.823,1.274 -17.971,33.089 -3.575,0.583 -4.787,-29.381 -6.324,1.03 z" /></g><g
           transform="translate(559.2559,752.986)"
           id="g144"><path
             id="path146"
             style="fill:#ffffff;fill-opacity:1;fill-rule:nonzero;stroke:none"
             d="m 0,0 c -4.408,1.753 -9.043,2.267 -13.904,1.54 -4.863,-0.727 -9.176,-2.595 -12.941,-5.603 -3.765,-3.01 -6.598,-6.906 -8.501,-11.687 -2.815,-7.081 -2.739,-14.036 0.23,-20.865 2.968,-6.829 7.915,-11.62 14.838,-14.374 4.624,-1.839 9.349,-2.419 14.176,-1.742 4.827,0.678 9.116,2.524 12.867,5.539 3.752,3.014 6.573,6.899 8.465,11.655 1.88,4.728 2.478,9.444 1.795,14.143 -0.683,4.701 -2.57,8.994 -5.658,12.883 C 8.278,-4.622 4.489,-1.786 0,0 m 2.04,5.896 c 9.023,-3.588 15.377,-9.603 19.062,-18.04 3.684,-8.439 3.776,-17.059 0.276,-25.861 -3.469,-8.722 -9.443,-14.912 -17.926,-18.575 -8.481,-3.663 -17.085,-3.759 -25.81,-0.289 -8.835,3.514 -15.09,9.503 -18.763,17.969 -3.673,8.465 -3.803,16.991 -0.389,25.577 2.278,5.724 5.772,10.478 10.485,14.264 4.713,3.786 10.009,6.111 15.892,6.977 C -9.25,8.784 -3.525,8.11 2.04,5.896" /></g><g
           transform="translate(577.6953,692.4972)"
           id="g148"><path
             id="path150"
             style="fill:#ffffff;fill-opacity:1;fill-rule:nonzero;stroke:none"
             d="m 0,0 6.349,-0.242 c -0.65,-8.008 1.129,-13.387 5.338,-16.137 1.799,-1.176 3.764,-1.86 5.894,-2.054 2.129,-0.193 4.068,0.145 5.817,1.016 1.748,0.871 3.14,2.096 4.172,3.679 1.176,1.8 1.719,3.959 1.632,6.482 -0.122,3.48 -1.311,8.354 -3.57,14.618 -2.269,6.305 -3.457,10.569 -3.567,12.793 -0.245,3.769 0.594,7.125 2.517,10.069 1.525,2.336 3.475,4.099 5.85,5.289 2.374,1.192 4.938,1.676 7.693,1.457 2.754,-0.22 5.323,-1.109 7.707,-2.665 2.529,-1.653 4.486,-3.825 5.87,-6.515 1.383,-2.691 2.207,-6.518 2.472,-11.48 l -6.548,-0.46 c -0.272,3.994 -0.841,6.882 -1.708,8.663 -0.867,1.781 -2.14,3.22 -3.818,4.316 -2.165,1.415 -4.365,1.914 -6.596,1.498 -2.233,-0.416 -3.978,-1.585 -5.233,-3.507 -0.762,-1.168 -1.258,-2.457 -1.486,-3.87 -0.228,-1.412 -0.12,-3.184 0.328,-5.316 0.26,-1.142 1.404,-4.44 3.43,-9.893 2.405,-6.465 3.598,-11.599 3.578,-15.404 -0.021,-3.804 -0.913,-7.056 -2.677,-9.756 -2.543,-3.893 -6.229,-6.309 -11.059,-7.248 -4.831,-0.941 -9.364,-0.028 -13.596,2.737 -3.26,2.129 -5.647,4.93 -7.163,8.4 C 0.11,-10.059 -0.432,-5.549 0,0" /></g><g
           transform="translate(239.605,152.4181)"
           id="g152"><path
             id="path154"
             style="fill:#ffffff;fill-opacity:1;fill-rule:nonzero;stroke:none"
             d="m 0,0 -1.24,-1.637 c -2.194,-2.892 -4.654,-3.304 -7.38,-1.238 l -2.205,1.672 c -2.727,2.066 -2.994,4.546 -0.801,7.439 l 12.78,16.859 c 2.192,2.892 4.652,3.306 7.379,1.239 l 2.205,-1.672 c 2.727,-2.066 2.994,-4.547 0.801,-7.439 L 9.355,12.342 5.941,14.93 7.936,17.562 c 0.755,0.996 0.622,1.88 -0.397,2.653 L 6.863,20.728 C 5.962,21.41 5.134,21.254 4.379,20.258 L -8.023,3.897 C -8.778,2.901 -8.705,2.062 -7.804,1.379 L -6.95,0.731 c 0.901,-0.682 1.729,-0.526 2.484,0.47 l 1.051,1.387 z" /></g><g
           transform="translate(257.4043,136.0783)"
           id="g156"><path
             id="path158"
             style="fill:#ffffff;fill-opacity:1;fill-rule:nonzero;stroke:none"
             d="m 0,0 1.855,-1.158 c 0.959,-0.599 1.77,-0.368 2.432,0.692 l 10.871,17.415 c 0.662,1.061 0.449,1.93 -0.636,2.607 l -1.703,1.063 c -1.06,0.662 -1.921,0.463 -2.583,-0.598 L -0.635,2.606 C -1.297,1.546 -1.085,0.678 0,0 m -2.927,-2.75 c -2.928,1.827 -3.431,4.28 -1.509,7.36 L 6.743,22.518 c 1.938,3.104 4.359,3.751 7.261,1.939 l 3.483,-2.175 c 2.903,-1.811 3.385,-4.269 1.447,-7.374 L 7.755,-3 C 5.833,-6.08 3.408,-6.705 0.48,-4.877 Z" /></g><g
           transform="translate(296.6816,136.4806)"
           id="g160"><path
             id="path162"
             style="fill:#ffffff;fill-opacity:1;fill-rule:nonzero;stroke:none"
             d="M 0,0 1.26,2.514 C 1.833,3.657 1.562,4.509 0.445,5.069 l -0.599,0.3 C -1.245,5.916 -2.077,5.617 -2.65,4.475 l -2.38,-4.748 c -0.267,-0.533 -0.342,-0.945 -0.221,-1.238 0.119,-0.293 0.345,-0.706 0.677,-1.238 l 2.65,-3.775 c 0.571,-0.853 0.959,-1.489 1.166,-1.908 0.205,-0.42 0.311,-0.855 0.318,-1.307 0.005,-0.452 -0.245,-1.185 -0.751,-2.196 l -3.061,-6.103 c -1.614,-3.219 -3.964,-4.054 -7.049,-2.507 l -2.354,1.18 c -3.059,1.534 -3.708,4.056 -1.947,7.567 l 0.72,1.436 3.83,-1.92 -0.78,-1.556 c -0.56,-1.117 -0.269,-1.963 0.875,-2.536 l 0.679,-0.34 c 1.01,-0.507 1.796,-0.202 2.356,0.915 l 2.441,4.867 c 0.266,0.533 0.339,0.945 0.22,1.238 -0.12,0.293 -0.345,0.705 -0.677,1.238 l -2.61,3.855 c -0.585,0.826 -0.983,1.475 -1.196,1.948 -0.212,0.472 -0.281,0.981 -0.207,1.527 0.073,0.545 0.297,1.19 0.67,1.936 l 2.941,5.864 c 1.641,3.271 3.99,4.14 7.049,2.606 L 3.103,8.08 C 6.161,6.547 6.871,4.144 5.23,0.872 L 3.83,-1.92 Z" /></g><g
           transform="translate(307.1216,106.0519)"
           id="g164"><path
             id="path166"
             style="fill:#ffffff;fill-opacity:1;fill-rule:nonzero;stroke:none"
             d="m 0,0 11.719,29.825 9.886,-3.885 -1.419,-3.614 -5.899,2.319 -3.558,-9.056 5.234,-2.057 -1.42,-3.614 -5.234,2.057 -3.901,-9.928 5.899,-2.318 -1.42,-3.614 z" /></g><g
           transform="translate(348.6792,99.9289)"
           id="g168"><path
             id="path170"
             style="fill:#ffffff;fill-opacity:1;fill-rule:nonzero;stroke:none"
             d="m 0,0 -0.569,-1.973 c -1.006,-3.488 -3.153,-4.756 -6.44,-3.809 l -2.659,0.766 c -3.288,0.949 -4.429,3.166 -3.423,6.655 l 5.862,20.327 c 1.005,3.487 3.151,4.758 6.439,3.809 l 2.659,-0.766 c 3.288,-0.948 4.429,-3.166 3.423,-6.655 l -1.001,-3.473 -4.117,1.187 0.915,3.173 c 0.346,1.201 -0.096,1.979 -1.325,2.333 L -1.05,21.81 c -1.087,0.313 -1.803,-0.131 -2.149,-1.331 L -8.888,0.752 c -0.346,-1.201 0.024,-1.958 1.111,-2.272 l 1.029,-0.296 c 1.086,-0.313 1.803,0.13 2.149,1.331 l 0.482,1.672 z" /></g><g
           transform="translate(374.2241,86.7677)"
           id="g172"><path
             id="path174"
             style="fill:#ffffff;fill-opacity:1;fill-rule:nonzero;stroke:none"
             d="M 0,0 2.575,14.32 -2.608,15.252 -5.183,0.933 -9.4,1.69 -3.729,33.229 0.488,32.472 -1.921,19.074 3.262,18.142 5.671,31.539 9.888,30.781 4.217,-0.758 Z" /></g><g
           transform="translate(407.8022,98.5207)"
           id="g176"><path
             id="path178"
             style="fill:#ffffff;fill-opacity:1;fill-rule:nonzero;stroke:none"
             d="m 0,0 0.782,10.638 c 0.091,1.247 -0.486,1.916 -1.732,2.007 l -1.158,0.084 c -1.246,0.092 -1.915,-0.485 -2.007,-1.731 L -4.896,0.359 Z m -6.041,-15.219 -4.273,0.314 1.946,26.484 c 0.268,3.65 2.108,5.35 5.521,5.099 L 0.358,16.442 C 3.77,16.191 5.343,14.241 5.074,10.591 l -1.946,-26.484 -4.273,0.314 0.86,11.707 -4.896,0.359 z" /></g><g
           transform="translate(438.3887,99.006)"
           id="g180"><path
             id="path182"
             style="fill:#ffffff;fill-opacity:1;fill-rule:nonzero;stroke:none"
             d="m 0,0 -0.431,15.48 4.284,0.12 0.89,-32.033 -4.283,-0.119 -0.178,6.38 -5,14.461 0.583,-20.969 -4.283,-0.119 -0.891,32.033 4.284,0.12 z" /></g><g
           transform="translate(466.21,88.5099)"
           id="g184"><path
             id="path186"
             style="fill:#ffffff;fill-opacity:1;fill-rule:nonzero;stroke:none"
             d="M 0,0 3.187,0.418 C 4.307,0.565 4.806,1.11 4.682,2.055 L 2.008,22.41 c -0.201,1.534 -0.938,2.218 -2.205,2.052 l -2.965,-0.39 z m -3.742,-4.408 -4.174,31.771 7.39,0.972 C 3.456,28.857 5.715,27.084 6.25,23.013 L 9.017,1.949 C 9.42,-1.119 7.925,-2.876 4.533,-3.321 Z" /></g><g
           transform="translate(499.6006,94.5128)"
           id="g188"><path
             id="path190"
             style="fill:#ffffff;fill-opacity:1;fill-rule:nonzero;stroke:none"
             d="m 0,0 2.127,0.51 c 1.1,0.262 1.504,1.003 1.213,2.218 l -4.786,19.964 c -0.291,1.215 -1.06,1.674 -2.303,1.375 L -5.702,23.6 C -6.918,23.309 -7.38,22.555 -7.089,21.34 L -2.303,1.375 C -2.012,0.16 -1.244,-0.299 0,0 M -0.093,-4.016 C -3.449,-4.82 -5.55,-3.458 -6.396,0.072 l -4.921,20.53 c -0.854,3.558 0.383,5.737 3.712,6.534 l 3.992,0.958 c 3.327,0.797 5.418,-0.584 6.271,-4.143 L 7.579,3.423 C 8.425,-0.108 7.17,-2.274 3.813,-3.079 Z" /></g><g
           transform="translate(549.7295,110.8712)"
           id="g192"><path
             id="path194"
             style="fill:#ffffff;fill-opacity:1;fill-rule:nonzero;stroke:none"
             d="m 0,0 2.953,1.266 c 1.039,0.445 1.372,1.105 0.996,1.981 l -8.087,18.87 c -0.609,1.422 -1.503,1.881 -2.677,1.377 l -2.749,-1.178 z m -2.409,-5.257 -12.623,29.454 6.85,2.937 c 3.693,1.582 6.347,0.486 7.965,-3.288 L 8.151,4.319 C 9.37,1.475 8.407,-0.621 5.263,-1.969 Z" /></g><g
           transform="translate(577.1611,137.2707)"
           id="g196"><path
             id="path198"
             style="fill:#ffffff;fill-opacity:1;fill-rule:nonzero;stroke:none"
             d="m 0,0 -5.121,9.357 c -0.6,1.097 -1.447,1.345 -2.544,0.746 L -8.683,9.545 c -1.096,-0.6 -1.344,-1.448 -0.745,-2.544 l 5.121,-9.357 z m 3.191,-16.06 -3.757,-2.056 -12.748,23.295 c -1.757,3.211 -1.135,5.636 1.867,7.279 l 2.818,1.543 c 3.002,1.643 5.381,0.858 7.138,-2.352 L 11.257,-11.646 7.499,-13.703 1.863,-3.406 -2.443,-5.763 Z" /></g><g
           transform="translate(594.585,162.6994)"
           id="g200"><path
             id="path202"
             style="fill:#ffffff;fill-opacity:1;fill-rule:nonzero;stroke:none"
             d="m 0,0 15.615,-23.437 -3.566,-2.375 -15.614,23.437 -3.418,-2.277 -2.153,3.231 10.4,6.93 2.153,-3.232 z" /></g><g
           transform="translate(630.0205,158.63)"
           id="g204"><path
             id="path206"
             style="fill:#ffffff;fill-opacity:1;fill-rule:nonzero;stroke:none"
             d="m 0,0 1.707,1.367 c 0.882,0.707 0.933,1.548 0.15,2.524 l -12.838,16.02 c -0.782,0.975 -1.672,1.063 -2.67,0.263 l -1.567,-1.256 c -0.975,-0.782 -1.072,-1.66 -0.291,-2.636 L -2.67,0.262 C -1.888,-0.713 -0.998,-0.801 0,0 m 1.627,-3.672 c -2.693,-2.159 -5.174,-1.822 -7.444,1.011 L -19.02,13.813 c -2.289,2.855 -2.097,5.353 0.573,7.493 l 3.204,2.567 c 2.67,2.14 5.149,1.782 7.438,-1.073 L 5.396,6.326 C 7.667,3.493 7.455,0.998 4.762,-1.16 Z" /></g><g
           transform="translate(642.541,195.8683)"
           id="g208"><path
             id="path210"
             style="fill:#ffffff;fill-opacity:1;fill-rule:nonzero;stroke:none"
             d="M 0,0 -1.971,2.006 C -2.867,2.918 -3.762,2.937 -4.653,2.061 L -5.131,1.592 c -0.87,-0.856 -0.856,-1.739 0.04,-2.652 l 3.723,-3.788 c 0.418,-0.424 0.783,-0.629 1.099,-0.609 0.316,0.018 0.78,0.098 1.391,0.24 l 4.43,1.286 c 0.991,0.265 1.718,0.427 2.181,0.487 0.464,0.058 0.911,0.018 1.341,-0.122 0.43,-0.141 1.041,-0.615 1.833,-1.421 l 4.786,-4.87 c 2.524,-2.569 2.555,-5.062 0.093,-7.481 l -1.878,-1.846 c -2.441,-2.398 -5.038,-2.197 -7.79,0.605 l -1.127,1.146 3.057,3.003 1.22,-1.242 c 0.876,-0.89 1.77,-0.889 2.682,0.009 l 0.541,0.531 c 0.807,0.793 0.773,1.635 -0.103,2.527 L 8.571,-8.723 C 8.154,-8.298 7.787,-8.095 7.472,-8.113 7.156,-8.132 6.692,-8.212 6.081,-8.354 L 1.589,-9.576 c -0.97,-0.287 -1.713,-0.454 -2.23,-0.502 -0.515,-0.048 -1.019,0.052 -1.512,0.298 -0.492,0.246 -1.03,0.666 -1.615,1.26 l -4.597,4.68 c -2.566,2.611 -2.628,5.114 -0.188,7.513 l 1.91,1.877 c 2.441,2.397 4.944,2.292 7.509,-0.319 l 2.19,-2.228 z" /></g></g></g></g></svg>