<?xml version="1.0" standalone="no"?>
<!DOCTYPE svg PUBLIC "-//W3C//DTD SVG 20010904//EN"
 "http://www.w3.org/TR/2001/REC-SVG-20010904/DTD/svg10.dtd">
<svg version="1.0" xmlns="http://www.w3.org/2000/svg"
 width="672.000000pt" height="196.000000pt" viewBox="0 0 672.000000 196.000000"
 preserveAspectRatio="xMidYMid meet">

<g transform="translate(0.000000,196.000000) scale(0.100000,-0.100000)"
fill="#000000" stroke="none">
<path d="M1360 1525 c0 -13 -48 -15 -375 -15 -374 0 -375 0 -375 -21 0 -12 -8
-23 -20 -26 -15 -4 -20 -14 -20 -37 0 -17 -3 -41 -6 -52 -5 -19 -1 -23 35 -29
27 -4 41 -12 41 -22 0 -8 9 -17 20 -20 23 -6 27 -33 5 -33 -11 0 -15 -11 -15
-40 0 -33 -3 -40 -20 -40 -15 0 -20 -7 -20 -29 0 -49 -12 -91 -26 -91 -10 0
-14 -13 -14 -40 0 -33 -3 -40 -20 -40 -16 0 -20 -7 -20 -32 0 -48 -10 -78 -26
-78 -10 0 -14 -13 -14 -40 0 -33 -3 -40 -20 -40 -17 0 -20 -7 -20 -45 0 -38
-3 -45 -20 -45 -18 0 -20 -7 -20 -55 0 -48 -2 -55 -20 -55 -19 0 -20 -7 -20
-112 0 -125 6 -158 26 -158 8 0 14 -10 14 -25 0 -18 5 -25 20 -25 13 0 20 -7
20 -20 0 -13 7 -20 20 -20 11 0 20 -6 20 -14 0 -14 42 -26 91 -26 19 0 29 -5
29 -15 0 -13 31 -15 215 -15 184 0 215 2 215 15 0 10 10 15 29 15 49 0 91 12
91 26 0 9 12 14 36 14 27 0 37 5 41 20 4 15 14 20 40 20 26 0 36 5 40 19 3 11
13 21 24 24 10 3 19 12 19 21 0 9 8 16 20 16 13 0 20 7 20 20 0 13 7 20 20 20
13 0 20 7 20 19 0 10 9 21 20 24 11 3 20 12 20 21 0 9 6 16 14 16 9 0 17 15
21 40 4 25 12 40 21 40 8 0 14 9 14 20 0 13 7 20 20 20 16 0 20 7 20 36 0 27
5 37 20 41 16 4 20 14 20 44 0 32 3 39 20 39 16 0 20 7 20 33 0 47 10 77 26
77 10 0 14 13 14 41 0 32 4 42 20 46 15 4 20 14 20 40 0 26 5 36 20 40 17 5
20 14 20 59 0 47 2 54 20 54 17 0 20 7 20 40 0 33 3 40 20 40 17 0 20 7 20 40
l0 40 40 0 c27 0 40 4 40 14 0 14 42 26 91 26 22 0 29 5 29 20 0 11 6 20 14
20 9 0 17 15 21 40 4 25 12 40 21 40 8 0 14 9 14 20 0 13 -7 20 -20 20 -11 0
-20 7 -20 15 0 8 -7 15 -15 15 -8 0 -15 -7 -15 -15 0 -13 -31 -15 -220 -15
-189 0 -220 2 -220 15 0 8 -7 15 -15 15 -8 0 -15 -6 -15 -14 0 -8 -10 -16 -22
-18 -15 -2 -24 -11 -26 -25 -2 -13 -10 -23 -18 -23 -8 0 -16 -15 -20 -40 -4
-24 -12 -40 -20 -40 -8 0 -14 -7 -14 -15 0 -10 10 -15 33 -15 47 0 77 -10 77
-26 0 -8 9 -14 20 -14 17 0 20 -7 20 -40 0 -27 -4 -40 -14 -40 -14 0 -26 -42
-26 -91 0 -22 -5 -29 -20 -29 -17 0 -20 -7 -20 -40 0 -29 -4 -40 -15 -40 -10
0 -17 -14 -21 -40 -4 -22 -12 -40 -19 -40 -13 0 -25 -43 -25 -86 0 -14 -6 -24
-14 -24 -9 0 -17 -15 -21 -40 -4 -22 -12 -40 -20 -40 -7 0 -15 -17 -19 -40 -4
-25 -12 -40 -20 -40 -9 0 -17 -16 -21 -40 -4 -25 -12 -40 -21 -40 -8 0 -14 -9
-14 -20 0 -13 -7 -20 -20 -20 -13 0 -20 -7 -20 -20 0 -13 -7 -20 -20 -20 -13
0 -20 -7 -20 -20 0 -13 -7 -20 -20 -20 -13 0 -20 -7 -20 -20 0 -17 -7 -20 -40
-20 -27 0 -40 -4 -40 -14 0 -20 -32 -26 -138 -26 -86 0 -94 2 -99 20 -3 11
-14 20 -24 20 -17 0 -19 8 -19 63 0 94 11 167 25 167 7 0 15 18 19 40 4 24 12
40 20 40 9 0 16 17 20 45 5 29 12 45 22 45 9 0 14 11 14 36 0 27 5 37 20 41
15 4 20 14 20 37 0 46 11 76 26 76 10 0 14 13 14 40 0 33 3 40 20 40 17 0 20
7 20 40 0 33 3 40 20 40 17 0 20 7 20 40 0 33 3 40 20 40 13 0 20 7 20 20 0
13 7 20 20 20 11 0 20 6 20 14 0 16 43 26 111 26 49 0 49 0 49 34 0 25 5 35
20 39 12 3 20 14 20 26 0 12 6 21 15 21 22 0 18 27 -5 33 -11 3 -20 12 -20 21
0 9 -7 16 -15 16 -8 0 -15 -7 -15 -15z"/>
<path d="M2270 1526 c0 -8 -10 -16 -22 -18 -18 -2 -24 -10 -26 -39 -2 -27 -9
-38 -23 -42 -14 -4 -19 -14 -19 -41 0 -24 -5 -36 -14 -36 -9 0 -17 -15 -21
-40 -4 -22 -12 -40 -20 -40 -13 0 -25 -42 -25 -86 0 -14 -6 -24 -14 -24 -9 0
-16 -17 -20 -45 -5 -27 -12 -45 -20 -45 -11 0 -26 -40 -26 -71 0 -10 143 -12
178 -3 17 5 22 14 22 40 0 27 4 34 19 34 14 0 20 10 25 40 4 26 11 40 21 40 8
0 15 9 15 20 0 13 7 20 20 20 13 0 20 7 20 20 0 13 7 20 20 20 13 0 20 7 20
20 0 17 7 20 40 20 34 0 40 3 40 20 0 19 5 21 78 18 l77 -3 3 -37 c3 -33 0
-38 -17 -38 -18 0 -21 -6 -21 -40 0 -33 -3 -40 -20 -40 -17 0 -20 -7 -20 -40
0 -33 -3 -40 -20 -40 -18 0 -20 -7 -20 -55 0 -48 -2 -55 -20 -55 -17 0 -20 -7
-20 -39 0 -30 -4 -40 -20 -44 -15 -4 -20 -14 -20 -40 0 -26 -5 -36 -20 -40
-16 -4 -20 -14 -20 -46 0 -28 -4 -41 -14 -41 -16 0 -26 -30 -26 -77 0 -26 -4
-33 -20 -33 -17 0 -20 -7 -20 -40 0 -33 -3 -40 -20 -40 -17 0 -20 -7 -20 -40
0 -33 -3 -40 -20 -40 -13 0 -20 -7 -20 -20 0 -17 -7 -20 -40 -20 -29 0 -40 -4
-40 -15 0 -9 -9 -15 -24 -15 -57 0 -86 -12 -86 -35 0 -44 -13 -85 -26 -85 -8
0 -14 -10 -14 -25 l0 -25 390 0 c389 0 390 0 390 21 0 12 8 23 19 26 14 3 20
17 24 55 7 58 4 68 -24 68 -10 0 -19 7 -19 15 0 10 -11 15 -35 15 -34 0 -35 1
-35 40 0 28 4 40 14 40 9 0 17 15 21 40 4 23 12 40 20 40 8 0 16 17 20 40 4
25 12 40 21 40 9 0 14 12 14 36 0 27 5 37 20 41 15 4 20 14 20 37 0 45 10 76
25 76 7 0 16 19 19 45 5 29 12 45 22 45 9 0 14 11 14 33 0 46 10 77 25 77 7 0
15 18 19 40 4 26 11 40 21 40 11 0 15 11 15 40 0 33 3 40 20 40 17 0 20 7 20
40 0 33 3 40 20 40 13 0 20 7 20 20 0 19 5 21 78 18 71 -3 77 -5 80 -25 2 -13
9 -23 17 -23 18 0 28 -52 20 -106 -4 -29 -11 -44 -21 -44 -11 0 -14 -14 -14
-60 l0 -60 73 0 c104 0 116 5 123 51 4 22 12 39 19 39 13 0 25 43 25 86 0 14
6 24 14 24 9 0 17 15 21 40 4 23 12 40 20 40 8 0 16 17 20 40 4 25 12 40 21
40 9 0 14 11 14 33 0 47 10 77 26 77 10 0 14 13 14 40 0 39 -1 40 -35 40 -24
0 -35 -5 -35 -15 0 -13 -77 -15 -630 -15 -553 0 -630 2 -630 15 0 8 -9 15 -20
15 -11 0 -20 -6 -20 -14z"/>
<path d="M3760 1505 c0 -28 -4 -35 -20 -35 -17 0 -20 -7 -20 -40 0 -33 -3 -40
-20 -40 -13 0 -20 -7 -20 -20 0 -17 7 -20 40 -20 33 0 40 -3 40 -20 0 -13 7
-20 20 -20 18 0 20 -7 20 -60 0 -53 -2 -60 -20 -60 -17 0 -20 -7 -20 -40 0
-33 -3 -40 -20 -40 -17 0 -20 -7 -20 -40 0 -33 -3 -40 -20 -40 -18 0 -20 -7
-20 -54 0 -45 -3 -54 -20 -59 -15 -4 -20 -14 -20 -40 0 -26 -5 -36 -20 -40
-15 -4 -20 -14 -20 -41 0 -25 -5 -36 -14 -36 -10 0 -17 -16 -22 -45 -3 -26
-12 -45 -19 -45 -15 0 -25 -31 -25 -77 0 -22 -5 -33 -14 -33 -9 0 -17 -15 -21
-40 -4 -25 -12 -40 -21 -40 -8 0 -14 -9 -14 -20 0 -13 -7 -20 -20 -20 -13 0
-20 -7 -20 -20 0 -17 -7 -20 -40 -20 -28 0 -40 -4 -40 -14 0 -9 -15 -17 -40
-21 -30 -5 -40 -11 -40 -26 0 -12 -7 -19 -20 -19 -17 0 -20 -7 -20 -40 0 -33
-3 -40 -20 -40 -33 0 -23 -27 13 -34 39 -8 1240 -7 1279 1 19 4 28 12 28 24 0
11 7 19 15 19 10 0 17 14 21 40 4 24 12 40 20 40 8 0 16 16 20 40 4 24 12 40
20 40 8 0 16 16 20 40 4 23 12 40 20 40 7 0 16 16 20 35 3 19 12 35 19 35 8 0
16 17 20 40 4 25 12 40 21 40 9 0 14 11 14 34 l0 34 -92 4 c-128 6 -138 3
-138 -38 0 -27 -4 -34 -20 -34 -13 0 -20 -7 -20 -20 0 -13 -7 -20 -20 -20 -17
0 -20 -7 -20 -40 0 -39 -1 -40 -34 -40 -25 0 -35 -5 -39 -20 -3 -12 -14 -20
-26 -20 -14 0 -21 -6 -21 -20 0 -17 -7 -20 -40 -20 -27 0 -40 -4 -40 -14 0
-20 -46 -26 -186 -26 l-124 0 0 60 c0 53 2 60 20 60 17 0 20 7 20 40 0 27 4
40 14 40 13 0 26 41 26 85 0 14 7 25 20 28 15 4 20 14 20 40 0 31 4 36 29 42
16 3 40 3 55 -1 24 -6 26 -10 26 -60 0 -41 -4 -54 -15 -54 -11 0 -15 -11 -15
-40 l0 -40 80 0 c64 0 80 3 80 15 0 8 7 15 16 15 9 0 18 9 21 20 3 11 12 20
19 20 10 0 14 13 14 40 0 33 3 40 20 40 17 0 20 7 20 40 0 33 3 40 20 40 17 0
20 7 20 40 0 33 3 40 20 40 17 0 20 7 20 40 0 33 3 40 20 40 17 0 20 7 20 40
0 33 3 40 20 40 17 0 20 7 20 40 l0 40 -100 0 -100 0 0 -34 c0 -25 -5 -35 -20
-39 -12 -3 -20 -14 -20 -26 0 -14 -6 -21 -20 -21 -13 0 -20 -7 -20 -20 0 -18
-7 -20 -54 -20 -30 0 -57 4 -60 9 -10 15 6 71 19 71 8 0 16 18 20 40 4 25 12
40 21 40 10 0 14 12 14 40 0 33 3 40 20 40 17 0 20 7 20 40 l0 40 180 0 c173
0 180 -1 180 -20 0 -13 7 -20 20 -20 18 0 20 -7 20 -80 l0 -80 93 0 c122 0
135 4 143 46 3 19 12 34 20 34 10 0 14 13 14 40 0 33 3 40 20 40 17 0 20 7 20
40 0 33 3 40 20 40 16 0 20 7 20 33 0 47 10 77 26 77 10 0 14 13 14 40 0 33
-3 40 -20 40 -11 0 -20 -7 -20 -15 0 -13 -72 -15 -590 -15 -518 0 -590 2 -590
15 0 11 -11 15 -40 15 -39 0 -40 -1 -40 -35z"/>
<path d="M5890 1485 c0 -12 -13 -15 -59 -15 -102 0 -181 -12 -181 -26 0 -8
-10 -14 -24 -14 -45 0 -86 -13 -86 -26 0 -10 -13 -14 -41 -14 -32 0 -42 -4
-46 -19 -3 -12 -17 -21 -39 -26 -20 -3 -34 -12 -34 -20 0 -9 -10 -15 -25 -15
-18 0 -25 -5 -25 -20 0 -16 -7 -20 -35 -20 -28 0 -35 -4 -35 -20 0 -13 -7 -20
-20 -20 -13 0 -20 -7 -20 -20 0 -13 -7 -20 -20 -20 -13 0 -20 -7 -20 -20 0
-13 -7 -20 -20 -20 -13 0 -20 -7 -20 -20 0 -13 -7 -20 -20 -20 -13 0 -20 -7
-20 -20 0 -13 -7 -20 -20 -20 -13 0 -20 -7 -20 -20 0 -11 -7 -20 -15 -20 -10
0 -17 -14 -21 -40 -5 -30 -11 -40 -25 -40 -15 0 -19 -7 -19 -34 0 -25 -5 -35
-20 -39 -16 -4 -20 -14 -20 -46 0 -28 -4 -41 -14 -41 -17 0 -26 -31 -26 -97 0
-38 -4 -53 -14 -53 -9 0 -15 -20 -20 -66 -8 -77 1 -134 20 -134 9 0 14 -12 14
-32 0 -48 10 -78 26 -78 8 0 14 -9 14 -21 0 -12 8 -23 20 -26 11 -3 20 -12 20
-19 0 -8 9 -14 21 -14 12 0 23 -8 26 -19 5 -19 40 -31 89 -31 14 0 24 -6 24
-14 0 -10 32 -15 144 -20 184 -10 376 1 376 20 0 8 10 14 24 14 44 0 86 12 86
25 0 8 18 16 40 20 23 4 40 12 40 20 0 7 16 16 35 19 21 4 35 13 35 21 0 9 9
15 21 15 12 0 23 8 26 20 3 11 14 20 24 20 12 0 19 7 19 20 0 13 7 20 20 20
13 0 20 7 20 20 0 13 7 20 20 20 13 0 20 7 20 20 0 13 7 20 20 20 13 0 20 7
20 20 0 11 7 20 15 20 8 0 15 9 15 20 0 13 7 20 20 20 13 0 20 7 20 20 0 18
-7 20 -54 20 -45 0 -54 3 -59 20 -4 17 -14 20 -61 20 -49 0 -56 -2 -56 -20 0
-13 -7 -20 -20 -20 -13 0 -20 -7 -20 -20 0 -13 -7 -20 -20 -20 -13 0 -20 -7
-20 -20 0 -13 -7 -20 -20 -20 -13 0 -20 -7 -20 -20 0 -13 -7 -20 -20 -20 -11
0 -20 -6 -20 -14 0 -14 -42 -26 -91 -26 -19 0 -29 -5 -29 -15 0 -12 -15 -15
-75 -15 -60 0 -75 3 -75 15 0 9 -9 15 -25 15 -18 0 -25 5 -25 20 0 13 -7 20
-20 20 -19 0 -20 7 -20 109 0 126 7 171 26 171 9 0 14 12 14 33 0 46 10 77 25
77 7 0 15 18 19 40 4 26 11 40 21 40 9 0 15 9 15 21 0 12 8 23 20 26 15 4 20
14 20 39 0 27 4 34 20 34 13 0 20 7 20 20 0 13 7 20 20 20 13 0 20 7 20 20 0
13 7 20 20 20 13 0 20 7 20 20 0 13 7 20 20 20 13 0 20 7 20 20 0 17 7 20 40
20 33 0 40 3 40 20 0 18 7 20 60 20 53 0 60 2 60 20 0 16 7 20 33 20 47 0 77
-10 77 -26 0 -10 13 -14 45 -14 38 0 45 -3 45 -20 0 -11 7 -20 15 -20 8 0 15
-9 15 -20 0 -18 -7 -20 -60 -20 -53 0 -60 -2 -60 -20 0 -16 -7 -20 -35 -20
-28 0 -35 -4 -35 -20 0 -13 -7 -20 -20 -20 -16 0 -20 -7 -20 -36 0 -27 -5 -37
-20 -41 -17 -4 -20 -14 -20 -58 0 -44 3 -54 20 -58 11 -3 20 -12 20 -21 0 -9
13 -18 35 -22 20 -3 35 -12 35 -20 0 -11 16 -14 65 -14 51 0 65 3 65 15 0 9 9
15 24 15 46 0 86 13 86 27 0 8 9 17 20 20 11 3 20 12 20 19 0 8 8 14 19 14 14
0 20 10 25 40 4 26 11 40 21 40 11 0 15 11 15 40 0 33 3 40 20 40 18 0 20 7
20 80 0 62 -3 80 -14 80 -9 0 -17 15 -21 40 -5 30 -11 40 -26 40 -12 0 -19 7
-19 20 0 13 -7 20 -20 20 -11 0 -20 7 -20 15 0 10 -14 17 -40 21 -22 4 -40 12
-40 19 0 16 -46 25 -131 25 -55 0 -69 3 -69 15 0 12 -15 15 -75 15 -60 0 -75
-3 -75 -15z"/>
</g>
</svg>
